<svg width="32" height="33" viewBox="0 0 32 33" fill="none" xmlns="http://www.w3.org/2000/svg">
<g filter="url(#filter0_b_924_1605)">
<ellipse cx="16.0001" cy="16.5001" rx="15.9999" ry="15.9999" transform="rotate(-180 16.0001 16.5001)" fill="url(#paint0_linear_924_1605)"/>
<ellipse cx="16.0001" cy="16.5001" rx="15.9999" ry="15.9999" transform="rotate(-180 16.0001 16.5001)" fill="black" fill-opacity="0.8"/>
<path d="M0.500192 16.5001C0.500193 7.93973 7.43974 1.00018 16.0001 1.00019C24.5605 1.00019 31.5 7.93973 31.5 16.5001C31.5 25.0605 24.5605 32 16.0001 32C7.43973 32 0.500191 25.0605 0.500192 16.5001Z" stroke="url(#paint1_linear_924_1605)" stroke-opacity="0.4"/>
</g>
<path d="M19.262 11.2076C19.3371 11.0659 19.4571 10.9524 19.6038 10.8843C19.8055 10.7916 20.0095 10.7823 20.1973 10.9145C20.2607 10.9599 20.3114 11.0205 20.3443 11.0906C20.5135 11.4556 20.6818 11.8212 20.8364 12.1936C21.0847 12.7951 21.4211 13.3542 21.696 13.9436C22.0864 14.7818 22.48 15.6181 22.8769 16.4526C23.1043 16.9303 23.3197 17.4188 23.6052 17.8689C23.6834 17.9875 23.7689 18.1012 23.8614 18.2094C23.9004 18.2537 23.9489 18.2889 24.0033 18.3125C24.42 18.5023 24.8688 18.5386 25.3162 18.5664C25.5444 18.5808 25.7684 18.5503 25.9952 18.5502C26.4295 18.5509 26.8638 18.5517 27.2958 18.5665C27.582 18.5767 27.868 18.6095 28.1528 18.6392C28.2628 18.6545 28.3717 18.6772 28.4786 18.7073C28.5232 18.7198 28.5662 18.7371 28.607 18.7591C28.8392 18.8773 28.8857 19.0756 28.7257 19.277C28.5924 19.447 28.4199 19.5833 28.2225 19.6748C27.8018 19.8629 27.3631 20.0096 26.9128 20.1126C26.4689 20.221 26.0282 20.3418 25.5907 20.475C24.9214 20.6852 24.2354 20.8401 23.5397 20.9381C23.0766 20.9975 22.61 21.0266 22.1428 21.0252C21.7228 21.0268 21.3033 20.9952 20.8821 20.9801C20.2396 20.9565 19.599 20.9091 18.9573 20.8569C18.018 20.788 17.0744 20.8931 16.1754 21.1668C15.5685 21.3434 14.9592 21.5137 14.3544 21.7056C14.0695 21.7959 13.7939 21.9265 13.5221 22.044C13.1629 22.1979 12.8076 22.3643 12.445 22.5133C11.5621 22.88 10.6427 23.1122 9.67317 23.1156C9.16421 23.1275 8.65501 23.0958 8.15135 23.0207C7.85058 22.9689 7.5467 22.9454 7.25148 22.8429C6.30586 22.5092 5.67561 21.884 5.45168 20.9062C5.39101 20.6518 5.38879 20.3874 5.4452 20.1324C5.50161 19.8774 5.61523 19.6382 5.77771 19.4324C5.93696 19.2234 6.09052 19.0033 6.26206 18.8009C6.60461 18.3882 7.03084 18.0506 7.5136 17.8095C7.9628 17.582 8.45389 17.4454 8.95803 17.4076C9.28039 17.3772 9.60514 17.3789 9.92737 17.4126C10.0371 17.4246 10.1451 17.453 10.2542 17.471C10.305 17.4766 10.3542 17.4819 10.4178 17.4889C10.4313 17.4497 10.4416 17.4094 10.4486 17.3685C10.4733 17.0233 10.4951 16.6777 10.5183 16.3323C10.5283 16.2413 10.5328 16.1505 10.5367 16.0596C10.5444 15.877 10.546 15.6946 10.5574 15.5132C10.5832 15.1092 10.5788 14.7019 10.6684 14.3034C10.681 14.2407 10.6879 14.1771 10.6892 14.1132C10.7024 13.7961 10.8159 13.5082 10.9516 13.2272C10.965 13.1982 10.9809 13.1704 10.9991 13.1441C11.2588 12.7953 11.575 12.491 11.935 12.2434C12.6324 11.7612 13.4082 11.3995 14.2293 11.1738C14.8036 11.0143 15.3911 10.9049 15.985 10.8467C16.5336 10.7987 17.0863 10.8171 17.6307 10.9015C17.8183 10.9304 18.0078 10.9564 18.1941 10.9692C18.5178 10.9904 18.8367 11.0591 19.1401 11.1732C19.1777 11.1863 19.2137 11.194 19.262 11.2076ZM10.8466 17.5955C10.906 17.6193 10.9642 17.6476 11.0258 17.6657C11.4802 17.8029 11.9351 17.9395 12.3906 18.0754L12.4575 18.0873C12.4096 18.0505 12.3547 18.0237 12.2961 18.0085C11.9557 17.9056 11.6169 17.8021 11.2754 17.7028C11.1343 17.6617 10.9897 17.6315 10.8473 17.5963C10.8194 17.4166 10.8352 17.3844 11.0003 17.3111C11.0721 17.2782 11.1447 17.2515 11.2158 17.2178C12.3159 16.7391 13.4696 16.3894 14.6532 16.1758C15.5528 16.0078 16.4622 15.8946 17.3763 15.8369C18.1608 15.7816 18.9482 15.7765 19.7337 15.8217C20.3398 15.8494 20.9421 15.9323 21.533 16.0692C21.8039 16.1302 22.0684 16.216 22.3232 16.3255C22.4138 16.3639 22.4877 16.4327 22.5317 16.5197C22.653 16.7556 22.7815 16.9886 22.9075 17.2227L23.4741 18.2757C23.4945 18.3134 23.5333 18.3509 23.4869 18.4175C23.3876 18.387 23.2819 18.3589 23.1794 18.3227C22.65 18.1408 22.1026 18.0151 21.5465 17.9478C20.9969 17.874 20.442 17.8269 19.8882 17.7911C19.4507 17.7636 19.0102 17.7705 18.5708 17.767C18.3074 17.7584 18.0437 17.7636 17.7808 17.7824C17.293 17.8301 16.8078 17.9023 16.3218 17.9608L13.9426 18.2657C13.9162 18.2688 13.8903 18.2743 13.8646 18.2783L13.8615 18.3066C14.2167 18.3507 14.5674 18.425 14.9098 18.5285C14.6944 18.5155 14.4805 18.4891 14.2658 18.4694C14.0512 18.4496 13.8332 18.4394 13.6157 18.4178C13.3982 18.3963 13.2019 18.3273 12.9859 18.3549C13.0303 18.3874 13.079 18.4136 13.1306 18.4327C13.5432 18.5956 13.9648 18.7352 14.3934 18.8509C14.981 18.9975 15.5643 19.1632 16.1483 19.3215C16.3582 19.3777 16.566 19.4464 16.7796 19.4827C17.1255 19.5417 17.4748 19.5844 17.8238 19.6226C18.0721 19.6498 18.3217 19.665 18.5709 19.684C18.7745 19.6995 18.9764 19.7103 19.1793 19.725C19.6785 19.763 20.1777 19.7588 20.6772 19.7515C21.4592 19.742 22.239 19.6727 23.0097 19.5442C23.273 19.4975 23.532 19.427 23.7909 19.3572C24.0276 19.2941 24.2573 19.2113 24.4934 19.1473C24.8973 19.0406 25.3107 19.0858 25.7229 19.1129C25.8287 19.1191 25.9337 19.1397 26.0393 19.155C26.1765 19.1753 26.3122 19.2023 26.4502 19.2158C26.7348 19.247 27.0209 19.2723 27.3072 19.2885C27.5744 19.3034 27.8411 19.31 28.1111 19.3071C28.2262 19.2995 28.3402 19.2796 28.4508 19.2477C28.4997 19.2341 28.5449 19.2102 28.5834 19.1776C28.696 19.0866 28.6893 18.9802 28.5589 18.9183C28.4549 18.8685 28.344 18.8345 28.2298 18.8174C27.8225 18.7562 27.4111 18.7263 26.9993 18.728C26.8144 18.7304 26.6292 18.7351 26.4446 18.7352C26.3243 18.7349 26.204 18.7285 26.0833 18.7251C26.318 18.7855 26.5546 18.8288 26.7902 18.8742C27.0078 18.9161 27.2251 18.9603 27.4424 19.0052C27.4874 19.0178 27.5315 19.0335 27.5744 19.0521L27.5668 19.0792C27.536 19.0804 27.505 19.0838 27.4746 19.0819C27.3869 19.0776 27.2986 19.0725 27.2114 19.0644C26.9254 19.0384 26.6396 19.0185 26.3556 18.9813C26.0716 18.9442 25.7713 18.8879 25.479 18.8431C25.2093 18.8015 24.9376 18.771 24.6693 18.7235C24.3389 18.6614 24.0156 18.5666 23.7043 18.4406C23.6344 18.4158 23.5764 18.3661 23.5418 18.3013C23.268 17.7928 22.9861 17.2887 22.7173 16.777C22.4148 16.202 22.1206 15.6218 21.8263 15.0417C21.6045 14.6045 21.381 14.168 21.1721 13.7255C20.8748 13.0891 20.585 12.4536 20.2975 11.8123C20.2028 11.5997 20.0865 11.3952 20.0621 11.1631C19.8756 11.0891 19.596 11.1589 19.4819 11.3057C19.6251 11.3968 19.8248 11.3711 19.9724 11.5277C19.9299 11.5491 19.8844 11.5639 19.8373 11.5717C19.7589 11.5701 19.6809 11.5598 19.6047 11.541C19.4257 11.4965 19.2518 11.4269 19.0701 11.3927C18.7619 11.3318 18.4506 11.2856 18.1405 11.2351C17.8203 11.1855 17.4963 11.1655 17.1725 11.1752C16.8171 11.1815 16.4596 11.1726 16.1048 11.1873C14.9393 11.2454 13.8549 11.5917 12.8187 12.1002C12.4812 12.2712 12.1591 12.4699 11.8557 12.6944C11.6722 12.8195 11.5246 12.9892 11.4272 13.1871C11.1526 13.7707 11.0477 14.3932 11.0089 15.0282C10.9889 15.3649 10.9687 15.7031 10.9452 16.0371C10.9216 16.3712 10.8947 16.7011 10.8676 17.0325C10.8528 17.1682 10.8378 17.3047 10.8283 17.441C10.8076 17.4969 10.7984 17.5525 10.8466 17.5955ZM28.4271 19.359C28.2966 19.4036 28.169 19.4568 28.036 19.4891C27.8674 19.5362 27.6947 19.5678 27.52 19.5835C27.1816 19.6031 26.8474 19.5416 26.5127 19.4989C26.178 19.4563 25.8619 19.4111 25.5368 19.3649C25.3758 19.3456 25.2127 19.3515 25.0537 19.3823C24.6776 19.4452 24.328 19.5942 23.9642 19.6985C23.7475 19.7608 23.5331 19.8362 23.3131 19.8869C23.0168 19.9555 22.7141 19.9979 22.417 20.0665C22.0451 20.1401 21.6661 20.1746 21.2865 20.1692C20.7211 20.1767 20.1595 20.1274 19.5961 20.0959C19.2824 20.0781 18.9683 20.0777 18.6537 20.0682C18.3021 20.0539 17.9505 20.0471 17.6013 20.0104C17.2939 19.9767 16.9898 19.914 16.685 19.8565C16.3396 19.7919 15.9996 19.701 15.6683 19.5844C15.1011 19.3842 14.5345 19.1856 13.9625 19.0007C13.2325 18.7643 12.4997 18.5367 11.7642 18.3178C11.1975 18.1479 10.6285 17.9852 10.0548 17.8371C9.83974 17.7819 9.61822 17.7554 9.39617 17.7582C8.8713 17.77 8.35532 17.8916 7.88239 18.1148C7.60212 18.2447 7.33023 18.3914 7.06821 18.554C6.86405 18.6791 6.67236 18.8229 6.49567 18.9834C6.09258 19.3579 5.81445 19.8442 5.69791 20.3785C5.60386 20.755 5.66159 21.1533 5.85897 21.4897C6.02524 21.7648 6.23777 22.0101 6.48745 22.2151C6.50393 22.2281 6.52133 22.2398 6.53952 22.2503C6.49429 22.1653 6.43984 22.0855 6.37713 22.0121C6.18741 21.7865 6.03769 21.531 5.9343 21.2564C5.79871 20.8574 5.80306 20.4677 6.01868 20.0935C6.16829 19.8469 6.37278 19.637 6.61678 19.4797C7.05791 19.1801 7.55597 19.0112 8.07145 18.8933C8.76016 18.7323 9.46476 18.6451 10.173 18.6335C10.4729 18.6301 10.7732 18.6373 11.0738 18.6415C11.2497 18.6442 11.4263 18.6408 11.6005 18.6584C11.9 18.6792 12.1979 18.7191 12.4922 18.7779C12.8149 18.854 13.127 18.9764 13.4418 19.0826C14.0905 19.3008 14.7395 19.5167 15.3851 19.7429C15.9119 19.9305 16.4542 20.0727 17.0057 20.1678C17.6919 20.2721 18.3844 20.3295 19.0783 20.3396C19.5174 20.3529 19.9565 20.3723 20.3951 20.3826C20.7091 20.3905 21.0252 20.4078 21.3378 20.3861C22.0858 20.3352 22.8285 20.2474 23.55 20.032C23.8288 19.9486 24.1098 19.8737 24.3878 19.7901C24.5288 19.7475 24.6651 19.6854 24.8072 19.6474C25.2715 19.5208 25.7424 19.5724 26.2119 19.6222C26.3678 19.6393 26.5217 19.675 26.6778 19.6906C26.834 19.7062 26.992 19.7046 27.1481 19.7202C27.3368 19.7378 27.5269 19.7353 27.715 19.7128C27.9963 19.684 28.2164 19.5413 28.4252 19.3694L28.4271 19.359Z" fill="#FF890E"/>
<path d="M14.0281 12.7065C13.9955 12.6818 13.9411 12.6607 13.9309 12.6279C13.9207 12.5951 13.9507 12.5456 13.9758 12.5121C14.0015 12.4859 14.0322 12.4649 14.0661 12.4503C14.388 12.2614 14.7356 12.1186 15.0985 12.0259C15.3171 11.9743 15.5402 11.9233 15.7609 11.881C15.8063 11.8733 15.8526 11.8728 15.8982 11.8795C15.9088 11.8823 15.9186 11.8876 15.9268 11.8949C15.9349 11.9022 15.9411 11.9114 15.9449 11.9215C15.9448 11.9343 15.9417 11.9468 15.9359 11.9582C15.9302 11.9696 15.9219 11.9796 15.9117 11.9873C15.8606 12.0097 15.8073 12.0272 15.7528 12.0394C15.5254 12.1005 15.2979 12.1612 15.0702 12.2213C14.9172 12.2614 14.7778 12.341 14.6665 12.4518C14.5641 12.5508 14.4352 12.6191 14.2948 12.6489C14.212 12.6708 14.1268 12.6864 14.0281 12.7065Z" fill="#FF890E"/>
<path d="M21.0692 14.1278C20.9727 14.1258 20.8802 14.0888 20.8094 14.0239C20.7124 13.9538 20.6213 13.8762 20.5368 13.7918C20.2441 13.4936 19.9893 13.1616 19.7778 12.803C19.7526 12.7648 19.7332 12.7233 19.7201 12.6797C19.7167 12.665 19.7168 12.6497 19.7202 12.6351C19.7237 12.6204 19.7305 12.6068 19.7401 12.5951C19.7527 12.5864 19.7673 12.5809 19.7826 12.579C19.7978 12.5771 19.8134 12.579 19.8278 12.5843C19.8649 12.602 19.8972 12.628 19.9221 12.6603C20.0122 12.7758 20.0945 12.8988 20.1902 13.0111C20.3989 13.2604 20.6141 13.5059 20.8243 13.7546C20.8975 13.8418 20.9664 13.9331 21.0344 14.0259C21.0497 14.0585 21.0614 14.0927 21.0692 14.1278Z" fill="#FF890E"/>
<path d="M9.65939 17.8826C9.70337 17.8837 9.74719 17.8885 9.79035 17.8969C10.3354 18.0497 10.8804 18.2034 11.4253 18.3582C11.4507 18.3653 11.4737 18.3787 11.4923 18.3972C10.8496 18.3405 10.2511 18.1248 9.64478 17.9391L9.65939 17.8826Z" fill="#FF890E"/>
<defs>
<filter id="filter0_b_924_1605" x="-60" y="-59.5" width="152" height="152" filterUnits="userSpaceOnUse" color-interpolation-filters="sRGB">
<feFlood flood-opacity="0" result="BackgroundImageFix"/>
<feGaussianBlur in="BackgroundImage" stdDeviation="30"/>
<feComposite in2="SourceAlpha" operator="in" result="effect1_backgroundBlur_924_1605"/>
<feBlend mode="normal" in="SourceGraphic" in2="effect1_backgroundBlur_924_1605" result="shape"/>
</filter>
<linearGradient id="paint0_linear_924_1605" x1="8.19338" y1="19.9286" x2="23.6522" y2="19.9286" gradientUnits="userSpaceOnUse">
<stop stop-color="#FF8320"/>
<stop offset="1" stop-color="#FFD3AF"/>
</linearGradient>
<linearGradient id="paint1_linear_924_1605" x1="28.4445" y1="7.70015" x2="8.38674" y2="7.43872" gradientUnits="userSpaceOnUse">
<stop stop-color="#FF8320"/>
<stop offset="1" stop-color="#FFB173"/>
</linearGradient>
</defs>
</svg>
