<svg width="60" height="32" viewBox="0 0 60 32" fill="none" xmlns="http://www.w3.org/2000/svg">
<path d="M44 32C52.8667 32 60 24.8667 60 16C60 7.13328 52.8667 0 44 0C35.1333 0 28 7.13328 28 16C28 24.8667 35.1333 32 44 32Z" fill="#2775CA"/>
<path d="M48.4001 18.5328C48.4001 16.1995 47.0001 15.3995 44.2001 15.0663C42.2001 14.7995 41.8001 14.2663 41.8001 13.3328C41.8001 12.3994 42.4668 11.7995 43.8001 11.7995C45.0001 11.7995 45.6668 12.1995 46.0001 13.1995C46.0668 13.3995 46.2668 13.5328 46.4668 13.5328H47.5334C47.8001 13.5328 48.0001 13.3328 48.0001 13.0663V12.9995C47.7334 11.5328 46.5334 10.3995 45.0001 10.2663V8.66625C45.0001 8.39953 44.8001 8.19953 44.4668 8.13281H43.4668C43.2001 8.13281 43.0001 8.33281 42.9334 8.66625V10.1995C40.9334 10.4663 39.6668 11.7995 39.6668 13.4663C39.6668 15.6663 41.0001 16.5328 43.8001 16.8663C45.6668 17.1995 46.2668 17.5995 46.2668 18.6663C46.2668 19.733 45.3334 20.4663 44.0668 20.4663C42.3334 20.4663 41.7334 19.7328 41.5334 18.7328C41.4668 18.4663 41.2668 18.3328 41.0668 18.3328H39.9334C39.6668 18.3328 39.4668 18.5328 39.4668 18.7995V18.8663C39.7334 20.5328 40.8001 21.7328 43.0001 22.0663V23.6663C43.0001 23.9328 43.2001 24.1328 43.5334 24.1995H44.5334C44.8001 24.1995 45.0001 23.9995 45.0668 23.6663V22.0663C47.0668 21.7328 48.4001 20.3328 48.4001 18.5328V18.5328Z" fill="white"/>
<path d="M40.6003 25.5336C35.4003 23.667 32.7336 17.867 34.667 12.7336C35.667 9.93356 37.867 7.80028 40.6003 6.80028C40.867 6.66699 41.0003 6.46699 41.0003 6.13355V5.20027C41.0003 4.93355 40.867 4.73355 40.6003 4.66699C40.5336 4.66699 40.4003 4.66699 40.3336 4.73355C34.0003 6.73355 30.5336 13.467 32.5336 19.8003C33.7336 23.5336 36.6003 26.4003 40.3336 27.6003C40.6003 27.7336 40.867 27.6003 40.9336 27.3336C41.0003 27.267 41.0003 27.2003 41.0003 27.067V26.1336C41.0003 25.9336 40.8003 25.667 40.6003 25.5336ZM47.667 4.73355C47.4003 4.60027 47.1336 4.73355 47.067 5.00027C47.0003 5.06699 47.0003 5.13355 47.0003 5.26699V6.20027C47.0003 6.46699 47.2003 6.73356 47.4003 6.867C52.6003 8.73356 55.267 14.5336 53.3336 19.667C52.3336 22.467 50.1336 24.6003 47.4003 25.6003C47.1336 25.7336 47.0003 25.9336 47.0003 26.267V27.2003C47.0003 27.467 47.1336 27.667 47.4003 27.7336C47.467 27.7336 47.6003 27.7336 47.667 27.667C54.0003 25.667 57.467 18.9336 55.467 12.6003C54.267 8.80028 51.3336 5.93355 47.667 4.73355V4.73355Z" fill="white"/>
<g filter="url(#filter0_b_1020_18610)">
<ellipse cx="16.0001" cy="16.0001" rx="15.9999" ry="15.9999" transform="rotate(-180 16.0001 16.0001)" fill="url(#paint0_linear_1020_18610)"/>
<ellipse cx="16.0001" cy="16.0001" rx="15.9999" ry="15.9999" transform="rotate(-180 16.0001 16.0001)" fill="black" fill-opacity="0.8"/>
<path d="M0.500192 16.0001C0.500193 7.43973 7.43974 0.500185 16.0001 0.500186C24.5605 0.500186 31.5 7.43973 31.5 16.0001C31.5 24.5605 24.5605 31.5 16.0001 31.5C7.43974 31.5 0.500191 24.5605 0.500192 16.0001Z" stroke="url(#paint1_linear_1020_18610)" stroke-opacity="0.4"/>
</g>
<path d="M19.262 10.7076C19.3371 10.5659 19.4571 10.4524 19.6038 10.3843C19.8055 10.2916 20.0095 10.2823 20.1973 10.4145C20.2607 10.4599 20.3114 10.5205 20.3443 10.5906C20.5135 10.9556 20.6818 11.3212 20.8364 11.6936C21.0847 12.2951 21.4211 12.8542 21.696 13.4436C22.0864 14.2818 22.48 15.1181 22.8769 15.9526C23.1043 16.4303 23.3197 16.9188 23.6052 17.3689C23.6834 17.4875 23.7689 17.6012 23.8614 17.7094C23.9004 17.7537 23.9489 17.7889 24.0033 17.8125C24.42 18.0023 24.8688 18.0386 25.3162 18.0664C25.5444 18.0808 25.7684 18.0503 25.9952 18.0502C26.4295 18.0509 26.8638 18.0517 27.2958 18.0665C27.582 18.0767 27.868 18.1095 28.1528 18.1392C28.2628 18.1545 28.3717 18.1772 28.4786 18.2073C28.5232 18.2198 28.5662 18.2371 28.607 18.2591C28.8392 18.3773 28.8857 18.5756 28.7257 18.777C28.5924 18.947 28.4199 19.0833 28.2225 19.1748C27.8018 19.3629 27.3631 19.5096 26.9128 19.6126C26.4689 19.721 26.0282 19.8418 25.5907 19.975C24.9214 20.1852 24.2354 20.3401 23.5397 20.4381C23.0766 20.4975 22.61 20.5266 22.1428 20.5252C21.7228 20.5268 21.3033 20.4952 20.8821 20.4801C20.2396 20.4565 19.599 20.4091 18.9573 20.3569C18.018 20.288 17.0744 20.3931 16.1754 20.6668C15.5685 20.8434 14.9592 21.0137 14.3544 21.2056C14.0695 21.2959 13.7939 21.4265 13.5221 21.544C13.1629 21.6979 12.8076 21.8643 12.445 22.0133C11.5621 22.38 10.6427 22.6122 9.67317 22.6156C9.16421 22.6275 8.65501 22.5958 8.15135 22.5207C7.85058 22.4689 7.5467 22.4454 7.25148 22.3429C6.30586 22.0092 5.67561 21.384 5.45168 20.4062C5.39101 20.1518 5.38879 19.8874 5.4452 19.6324C5.50161 19.3774 5.61523 19.1382 5.77771 18.9324C5.93696 18.7234 6.09052 18.5033 6.26206 18.3009C6.60461 17.8882 7.03084 17.5506 7.5136 17.3095C7.9628 17.082 8.45389 16.9454 8.95803 16.9076C9.28039 16.8772 9.60514 16.8789 9.92737 16.9126C10.0371 16.9246 10.1451 16.953 10.2542 16.971C10.305 16.9766 10.3542 16.9819 10.4178 16.9889C10.4313 16.9497 10.4416 16.9094 10.4486 16.8685C10.4733 16.5233 10.4951 16.1777 10.5183 15.8323C10.5283 15.7413 10.5328 15.6505 10.5367 15.5596C10.5444 15.377 10.546 15.1946 10.5574 15.0132C10.5832 14.6092 10.5788 14.2019 10.6684 13.8034C10.681 13.7407 10.6879 13.6771 10.6892 13.6132C10.7024 13.2961 10.8159 13.0082 10.9516 12.7272C10.965 12.6982 10.9809 12.6704 10.9991 12.6441C11.2588 12.2953 11.575 11.991 11.935 11.7434C12.6324 11.2612 13.4082 10.8995 14.2293 10.6738C14.8036 10.5143 15.3911 10.4049 15.985 10.3467C16.5336 10.2987 17.0863 10.3171 17.6307 10.4015C17.8183 10.4304 18.0078 10.4564 18.1941 10.4692C18.5178 10.4904 18.8367 10.5591 19.1401 10.6732C19.1777 10.6863 19.2137 10.694 19.262 10.7076ZM10.8466 17.0955C10.906 17.1193 10.9642 17.1476 11.0258 17.1657C11.4802 17.3029 11.9351 17.4395 12.3906 17.5754L12.4575 17.5873C12.4096 17.5505 12.3547 17.5237 12.2961 17.5085C11.9557 17.4056 11.6169 17.3021 11.2754 17.2028C11.1343 17.1617 10.9897 17.1315 10.8473 17.0963C10.8194 16.9166 10.8352 16.8844 11.0003 16.8111C11.0721 16.7782 11.1447 16.7515 11.2158 16.7178C12.3159 16.2391 13.4696 15.8894 14.6532 15.6758C15.5528 15.5078 16.4622 15.3946 17.3763 15.3369C18.1608 15.2816 18.9482 15.2765 19.7337 15.3217C20.3398 15.3494 20.9421 15.4323 21.533 15.5692C21.8039 15.6302 22.0684 15.716 22.3232 15.8255C22.4138 15.8639 22.4877 15.9327 22.5317 16.0197C22.653 16.2556 22.7815 16.4886 22.9075 16.7227L23.4741 17.7757C23.4945 17.8134 23.5333 17.8509 23.4869 17.9175C23.3876 17.887 23.2819 17.8589 23.1794 17.8227C22.65 17.6408 22.1026 17.5151 21.5465 17.4478C20.9969 17.374 20.442 17.3269 19.8882 17.2911C19.4507 17.2636 19.0102 17.2705 18.5708 17.267C18.3074 17.2584 18.0437 17.2636 17.7808 17.2824C17.293 17.3301 16.8078 17.4023 16.3218 17.4608L13.9426 17.7657C13.9162 17.7688 13.8903 17.7743 13.8646 17.7783L13.8615 17.8066C14.2167 17.8507 14.5674 17.925 14.9098 18.0285C14.6944 18.0155 14.4805 17.9891 14.2658 17.9694C14.0512 17.9496 13.8332 17.9394 13.6157 17.9178C13.3982 17.8963 13.2019 17.8273 12.9859 17.8549C13.0303 17.8874 13.079 17.9136 13.1306 17.9327C13.5432 18.0956 13.9648 18.2352 14.3934 18.3509C14.981 18.4975 15.5643 18.6632 16.1483 18.8215C16.3582 18.8777 16.566 18.9465 16.7796 18.9827C17.1255 19.0417 17.4748 19.0844 17.8238 19.1226C18.0721 19.1498 18.3217 19.165 18.5709 19.184C18.7745 19.1995 18.9764 19.2103 19.1793 19.225C19.6785 19.263 20.1777 19.2588 20.6772 19.2515C21.4592 19.242 22.239 19.1727 23.0097 19.0442C23.273 18.9975 23.532 18.927 23.7909 18.8572C24.0276 18.7941 24.2573 18.7113 24.4934 18.6473C24.8973 18.5406 25.3107 18.5858 25.7229 18.6129C25.8287 18.6191 25.9337 18.6397 26.0393 18.655C26.1765 18.6753 26.3122 18.7023 26.4502 18.7158C26.7348 18.747 27.0209 18.7723 27.3072 18.7885C27.5744 18.8034 27.8411 18.81 28.1111 18.8071C28.2262 18.7995 28.3402 18.7796 28.4508 18.7477C28.4997 18.7341 28.5449 18.7102 28.5834 18.6776C28.696 18.5866 28.6893 18.4802 28.5589 18.4183C28.4549 18.3685 28.344 18.3345 28.2298 18.3174C27.8225 18.2562 27.4111 18.2263 26.9993 18.228C26.8144 18.2304 26.6292 18.2351 26.4446 18.2352C26.3243 18.2349 26.204 18.2285 26.0833 18.2251C26.318 18.2855 26.5546 18.3288 26.7902 18.3742C27.0078 18.4161 27.2251 18.4603 27.4424 18.5052C27.4874 18.5178 27.5315 18.5335 27.5744 18.5521L27.5668 18.5792C27.536 18.5804 27.505 18.5838 27.4746 18.5819C27.3869 18.5776 27.2986 18.5725 27.2114 18.5644C26.9254 18.5384 26.6396 18.5185 26.3556 18.4813C26.0716 18.4442 25.7713 18.3879 25.479 18.3431C25.2093 18.3015 24.9376 18.271 24.6693 18.2235C24.3389 18.1614 24.0156 18.0666 23.7043 17.9406C23.6344 17.9158 23.5764 17.8661 23.5418 17.8013C23.268 17.2928 22.9861 16.7887 22.7173 16.277C22.4148 15.702 22.1206 15.1218 21.8263 14.5417C21.6045 14.1045 21.381 13.668 21.1721 13.2255C20.8748 12.5891 20.585 11.9536 20.2975 11.3123C20.2028 11.0997 20.0865 10.8952 20.0621 10.6631C19.8756 10.5891 19.596 10.6589 19.4819 10.8057C19.6251 10.8968 19.8248 10.8711 19.9724 11.0277C19.9299 11.0491 19.8844 11.0639 19.8373 11.0717C19.7589 11.0701 19.6809 11.0598 19.6047 11.041C19.4257 10.9965 19.2518 10.9269 19.0701 10.8927C18.7619 10.8318 18.4506 10.7856 18.1405 10.7351C17.8203 10.6855 17.4963 10.6655 17.1725 10.6752C16.8171 10.6815 16.4596 10.6726 16.1048 10.6873C14.9393 10.7454 13.8549 11.0917 12.8187 11.6002C12.4812 11.7712 12.1591 11.9699 11.8557 12.1944C11.6722 12.3195 11.5246 12.4892 11.4272 12.6871C11.1526 13.2707 11.0477 13.8932 11.0089 14.5282C10.9889 14.8649 10.9687 15.2031 10.9452 15.5371C10.9216 15.8712 10.8947 16.2011 10.8676 16.5325C10.8528 16.6682 10.8378 16.8047 10.8283 16.941C10.8076 16.9969 10.7984 17.0525 10.8466 17.0955ZM28.4271 18.859C28.2966 18.9036 28.169 18.9568 28.036 18.9891C27.8674 19.0362 27.6947 19.0678 27.52 19.0835C27.1816 19.1031 26.8474 19.0416 26.5127 18.9989C26.178 18.9563 25.8619 18.9111 25.5368 18.8649C25.3758 18.8456 25.2127 18.8515 25.0537 18.8823C24.6776 18.9452 24.328 19.0942 23.9642 19.1985C23.7475 19.2608 23.5331 19.3362 23.3131 19.3869C23.0168 19.4555 22.7141 19.4979 22.417 19.5665C22.0451 19.6401 21.6661 19.6746 21.2865 19.6692C20.7211 19.6767 20.1595 19.6274 19.5961 19.5959C19.2824 19.5781 18.9683 19.5777 18.6537 19.5682C18.3021 19.5539 17.9505 19.5471 17.6013 19.5104C17.2939 19.4767 16.9898 19.414 16.685 19.3565C16.3396 19.2919 15.9996 19.201 15.6683 19.0844C15.1011 18.8842 14.5345 18.6856 13.9625 18.5007C13.2325 18.2643 12.4997 18.0367 11.7642 17.8178C11.1975 17.6479 10.6285 17.4852 10.0548 17.3371C9.83974 17.2819 9.61822 17.2554 9.39617 17.2582C8.8713 17.27 8.35532 17.3916 7.88239 17.6148C7.60212 17.7447 7.33023 17.8914 7.06821 18.054C6.86405 18.1791 6.67236 18.3229 6.49567 18.4834C6.09258 18.8579 5.81445 19.3442 5.69791 19.8785C5.60386 20.255 5.66159 20.6533 5.85897 20.9897C6.02524 21.2648 6.23777 21.5101 6.48745 21.7151C6.50393 21.7281 6.52133 21.7398 6.53952 21.7503C6.49429 21.6653 6.43984 21.5855 6.37713 21.5121C6.18741 21.2865 6.03769 21.031 5.9343 20.7564C5.79871 20.3574 5.80306 19.9677 6.01868 19.5935C6.16829 19.3469 6.37278 19.137 6.61678 18.9797C7.05791 18.6801 7.55597 18.5112 8.07145 18.3933C8.76016 18.2323 9.46476 18.1451 10.173 18.1335C10.4729 18.1301 10.7732 18.1373 11.0738 18.1415C11.2497 18.1442 11.4263 18.1408 11.6005 18.1584C11.9 18.1792 12.1979 18.2191 12.4922 18.2779C12.8149 18.354 13.127 18.4764 13.4418 18.5826C14.0905 18.8008 14.7395 19.0167 15.3851 19.2429C15.9119 19.4305 16.4542 19.5727 17.0057 19.6678C17.6919 19.7721 18.3844 19.8295 19.0783 19.8396C19.5174 19.8529 19.9565 19.8723 20.3951 19.8826C20.7091 19.8905 21.0252 19.9078 21.3378 19.8861C22.0858 19.8352 22.8285 19.7474 23.55 19.532C23.8288 19.4486 24.1098 19.3737 24.3878 19.2901C24.5288 19.2475 24.6651 19.1854 24.8072 19.1474C25.2715 19.0208 25.7424 19.0724 26.2119 19.1222C26.3678 19.1393 26.5217 19.175 26.6778 19.1906C26.834 19.2062 26.992 19.2046 27.1481 19.2202C27.3368 19.2378 27.5269 19.2353 27.715 19.2128C27.9963 19.184 28.2164 19.0413 28.4252 18.8694L28.4271 18.859Z" fill="#FF890E"/>
<path d="M14.0281 12.2065C13.9955 12.1818 13.9411 12.1607 13.9309 12.1279C13.9207 12.0951 13.9507 12.0456 13.9758 12.0121C14.0015 11.9859 14.0322 11.9649 14.0661 11.9503C14.388 11.7614 14.7356 11.6186 15.0985 11.5259C15.3171 11.4743 15.5402 11.4233 15.7609 11.381C15.8063 11.3733 15.8526 11.3728 15.8982 11.3795C15.9088 11.3823 15.9186 11.3876 15.9268 11.3949C15.9349 11.4022 15.9411 11.4114 15.9449 11.4215C15.9448 11.4343 15.9417 11.4468 15.9359 11.4582C15.9302 11.4696 15.9219 11.4796 15.9117 11.4873C15.8606 11.5097 15.8073 11.5272 15.7528 11.5394C15.5254 11.6005 15.2979 11.6612 15.0702 11.7213C14.9172 11.7614 14.7778 11.841 14.6665 11.9518C14.5641 12.0508 14.4352 12.1191 14.2948 12.1489C14.212 12.1708 14.1268 12.1864 14.0281 12.2065Z" fill="#FF890E"/>
<path d="M21.0692 13.6278C20.9727 13.6258 20.8802 13.5888 20.8094 13.5239C20.7124 13.4538 20.6213 13.3762 20.5368 13.2918C20.2441 12.9936 19.9893 12.6616 19.7778 12.303C19.7526 12.2648 19.7332 12.2233 19.7201 12.1797C19.7167 12.165 19.7168 12.1497 19.7202 12.1351C19.7237 12.1204 19.7305 12.1068 19.7401 12.0951C19.7527 12.0864 19.7673 12.0809 19.7826 12.079C19.7978 12.0771 19.8134 12.079 19.8278 12.0843C19.8649 12.102 19.8972 12.128 19.9221 12.1603C20.0122 12.2758 20.0945 12.3988 20.1902 12.5111C20.3989 12.7604 20.6141 13.0059 20.8243 13.2546C20.8975 13.3418 20.9664 13.4331 21.0344 13.5259C21.0497 13.5585 21.0614 13.5927 21.0692 13.6278V13.6278Z" fill="#FF890E"/>
<path d="M9.65939 17.3826C9.70337 17.3837 9.74719 17.3885 9.79035 17.3969C10.3354 17.5497 10.8804 17.7034 11.4253 17.8582C11.4507 17.8653 11.4737 17.8787 11.4923 17.8972C10.8496 17.8405 10.2511 17.6248 9.64478 17.4391L9.65939 17.3826Z" fill="#FF890E"/>
<defs>
<filter id="filter0_b_1020_18610" x="-60" y="-60" width="152" height="152" filterUnits="userSpaceOnUse" color-interpolation-filters="sRGB">
<feFlood flood-opacity="0" result="BackgroundImageFix"/>
<feGaussianBlur in="BackgroundImage" stdDeviation="30"/>
<feComposite in2="SourceAlpha" operator="in" result="effect1_backgroundBlur_1020_18610"/>
<feBlend mode="normal" in="SourceGraphic" in2="effect1_backgroundBlur_1020_18610" result="shape"/>
</filter>
<linearGradient id="paint0_linear_1020_18610" x1="8.19338" y1="19.4286" x2="23.6522" y2="19.4286" gradientUnits="userSpaceOnUse">
<stop stop-color="#FF8320"/>
<stop offset="1" stop-color="#FFD3AF"/>
</linearGradient>
<linearGradient id="paint1_linear_1020_18610" x1="28.4445" y1="7.20015" x2="8.38674" y2="6.93872" gradientUnits="userSpaceOnUse">
<stop stop-color="#FF8320"/>
<stop offset="1" stop-color="#FFB173"/>
</linearGradient>
</defs>
</svg>