<svg width="24" height="24" viewBox="0 0 24 24" fill="none" xmlns="http://www.w3.org/2000/svg">
<path d="M13.3095 5.93356C13.1143 5.73829 12.7977 5.73829 12.6024 5.93356C12.4072 6.12882 12.4072 6.4454 12.6024 6.64066L13.3095 5.93356ZM18.669 12.0001L19.0225 12.3537C19.1163 12.2599 19.169 12.1327 19.169 12.0001C19.169 11.8675 19.1163 11.7403 19.0225 11.6466L18.669 12.0001ZM12.6024 17.3596C12.4072 17.5548 12.4072 17.8714 12.6024 18.0667C12.7977 18.2619 13.1143 18.2619 13.3095 18.0667L12.6024 17.3596ZM5.35498 11.5001C5.07884 11.5001 4.85498 11.724 4.85498 12.0001C4.85498 12.2763 5.07884 12.5001 5.35498 12.5001V11.5001ZM18.652 12.5001C18.9281 12.5001 19.152 12.2763 19.152 12.0001C19.152 11.724 18.9281 11.5001 18.652 11.5001V12.5001ZM12.6024 6.64066L18.3154 12.3537L19.0225 11.6466L13.3095 5.93356L12.6024 6.64066ZM18.3154 11.6466L12.6024 17.3596L13.3095 18.0667L19.0225 12.3537L18.3154 11.6466ZM5.35498 12.5001H18.652V11.5001H5.35498V12.5001Z" fill="#847C7C"/>
</svg>
