<svg width="26" height="26" viewBox="0 0 26 26" fill="none" xmlns="http://www.w3.org/2000/svg">
<path fill-rule="evenodd" clip-rule="evenodd" d="M13 0C5.79091 0 0 5.79091 0 13C0 20.2091 5.79091 26 13 26C20.2091 26 26 20.2091 26 13C26 5.79091 20.2091 0 13 0ZM13.0001 23.6356C7.09098 23.6356 2.36371 18.9084 2.36371 12.9993C2.36371 7.09019 7.09098 2.36292 13.0001 2.36292C18.9092 2.36292 23.6364 7.09019 23.6364 12.9993C23.6364 18.9084 18.9092 23.6356 13.0001 23.6356ZM17.3699 17.3713C17.8426 16.8986 17.8426 16.1895 17.3699 15.7167L14.179 12.5258V5.90765C14.179 5.19856 13.7063 4.72583 12.9972 4.72583C12.2881 4.72583 11.8154 5.19856 11.8154 5.90765V12.9986C11.8154 13.3531 11.9336 13.5895 12.1699 13.8258L15.7154 17.3713C15.9517 17.6076 16.1881 17.7258 16.5426 17.7258C16.8972 17.7258 17.1335 17.6076 17.3699 17.3713Z" fill="#847C7C"/>
</svg>
