<svg width="128" height="25" viewBox="0 0 128 25" fill="none" xmlns="http://www.w3.org/2000/svg">
<path d="M41.7713 16.1964C42.725 17.1643 43.8766 17.6483 45.2263 17.6483C46.5761 17.6483 47.7204 17.1643 48.6593 16.1964C49.6129 15.2139 50.0897 14.0333 50.0897 12.6548C50.0897 11.2763 49.6129 10.1031 48.6593 9.13522C47.7204 8.15267 46.5761 7.66139 45.2263 7.66139C43.8766 7.66139 42.725 8.15267 41.7713 9.13522C40.8324 10.1031 40.3629 11.2763 40.3629 12.6548C40.3629 14.0333 40.8324 15.2139 41.7713 16.1964ZM50.926 18.3742C49.3562 19.9433 47.4563 20.7279 45.2263 20.7279C42.9964 20.7279 41.0891 19.9433 39.5047 18.3742C37.9349 16.7903 37.15 14.8839 37.15 12.6548C37.15 10.4257 37.9349 8.52662 39.5047 6.95747C41.0891 5.37365 42.9964 4.58174 45.2263 4.58174C47.4563 4.58174 49.3562 5.37365 50.926 6.95747C52.5104 8.52662 53.3026 10.4257 53.3026 12.6548C53.3026 14.8839 52.5104 16.7903 50.926 18.3742Z" fill="white"/>
<path d="M55.4319 20.4639V4.40576H58.4468V20.4639H55.4319Z" fill="white"/>
<path d="M65.677 24.7314H62.3981L64.5547 19.848L59.9334 9.46519H63.2344L66.1832 16.5924L69.11 9.46519H72.433L65.677 24.7314Z" fill="white"/>
<path d="M87.7562 20.4639V14.6566C87.7562 12.8821 87.1254 11.9949 85.8637 11.9949C84.9101 11.9949 84.2059 12.4275 83.7511 13.2927C83.8098 13.5421 83.8391 13.8207 83.8391 14.1287V20.4639H80.8243V14.6566C80.8243 12.8821 80.1934 11.9949 78.9317 11.9949C78.5063 11.9949 78.1101 12.1049 77.7434 12.3249C77.3766 12.5302 77.0979 12.8088 76.9071 13.1608V20.4639H73.8923V9.46519H76.9071V10.3231C77.5527 9.58984 78.4476 9.22321 79.5919 9.22321C80.8389 9.22321 81.8732 9.70716 82.6948 10.675C83.531 9.70716 84.7267 9.22321 86.2818 9.22321C87.7636 9.22321 88.8786 9.67783 89.6268 10.5871C90.3897 11.4963 90.7711 12.6768 90.7711 14.1287V20.4639H87.7562Z" fill="white"/>
<path d="M93.5346 24.7314V9.46519H96.5495V10.2571C97.2683 9.56784 98.2073 9.22321 99.3663 9.22321C100.951 9.22321 102.249 9.78781 103.261 10.917C104.288 12.0316 104.802 13.3807 104.802 14.9646C104.802 16.5484 104.288 17.9049 103.261 19.0341C102.249 20.1486 100.951 20.7059 99.3663 20.7059C98.1926 20.7059 97.2537 20.3539 96.5495 19.65V24.7314H93.5346ZM98.9261 17.9562C99.7477 17.9562 100.415 17.6702 100.929 17.0983C101.442 16.5117 101.699 15.8005 101.699 14.9646C101.699 14.1287 101.442 13.4247 100.929 12.8528C100.415 12.2662 99.7477 11.9729 98.9261 11.9729C97.9285 11.9729 97.1363 12.3689 96.5495 13.1608V16.7464C97.1363 17.5529 97.9285 17.9562 98.9261 17.9562Z" fill="white"/>
<path d="M117.066 9.46519V20.4639H114.051V19.584C113.332 20.3319 112.43 20.7059 111.344 20.7059C109.95 20.7059 108.857 20.266 108.065 19.3861C107.287 18.4915 106.899 17.311 106.899 15.8445V9.46519H109.913V15.3385C109.913 17.0837 110.603 17.9562 111.982 17.9562C112.818 17.9562 113.508 17.5383 114.051 16.7024V9.46519H117.066Z" fill="white"/>
<path d="M123.665 20.7059C121.582 20.7059 120.071 20.002 119.132 18.5941L121.2 16.8343C121.728 17.6849 122.55 18.1102 123.665 18.1102C124.002 18.1102 124.289 18.0442 124.523 17.9122C124.758 17.7802 124.875 17.5823 124.875 17.3183C124.875 17.0836 124.773 16.893 124.567 16.7464C124.377 16.585 123.988 16.4237 123.401 16.2624L122.587 16.0644C121.574 15.8005 120.804 15.3605 120.276 14.7446C119.763 14.1287 119.52 13.3954 119.55 12.5448C119.579 11.5476 119.975 10.7484 120.738 10.1471C121.516 9.53118 122.499 9.22321 123.687 9.22321C125.374 9.22321 126.643 9.83914 127.494 11.071L125.514 12.6768C125 12.0316 124.377 11.7089 123.643 11.7089C123.35 11.7089 123.093 11.7749 122.873 11.9069C122.653 12.0389 122.543 12.2222 122.543 12.4568C122.543 12.8968 122.902 13.2121 123.621 13.4027L124.655 13.7107C126.783 14.2826 127.846 15.4192 127.846 17.1203C127.846 18.1615 127.45 19.0194 126.658 19.694C125.866 20.3686 124.868 20.7059 123.665 20.7059Z" fill="white"/>
<path fill-rule="evenodd" clip-rule="evenodd" d="M9.32603 24.373V24.3197V23.1947V19.9292C5.98264 18.8773 3.56435 15.821 3.56435 12.2145C3.56435 7.73784 7.29043 4.1088 11.8868 4.1088C16.4831 4.1088 20.2092 7.73784 20.2092 12.2145C20.2092 15.821 17.7909 18.8773 14.4475 19.9292V23.1947V24.3197V24.373H23.6235V21.0668H19.0922C21.8186 19.002 23.5702 15.7924 23.5702 12.1878C23.5702 5.95881 18.3393 0.90918 11.8868 0.90918C5.43421 0.90918 0.203373 5.95881 0.203373 12.1878C0.203373 15.7924 1.95498 19.002 4.68133 21.0668H0.150024V24.373H9.32603Z" fill="white"/>
</svg>
