<svg width="16" height="14" viewBox="0 0 16 14" fill="none" xmlns="http://www.w3.org/2000/svg">
<path d="M3.44861 13.1468C4.0853 12.5774 4.94863 12.2581 5.8485 12.2581H8.78965C10.1778 12.2581 11.5094 11.7648 12.4913 10.8874L14.54 9.05544C15.0887 8.56477 15.0895 7.76877 14.54 7.27744C13.9913 6.78677 13.1011 6.78677 12.5516 7.27744L11.118 8.55944C10.6982 8.93477 10.1294 9.14544 9.53669 9.14544H6.85647M5.7143 9.14677H7.15021C7.83611 9.14677 8.39228 8.64944 8.39228 8.0361C8.39228 7.42277 7.83611 6.92544 7.15021 6.92544H4.56692C3.86313 6.92544 3.20109 7.22144 2.77837 7.72477L1.08301 9.56544M12.527 2.9261C12.527 4.15328 11.4145 5.1481 10.0422 5.1481C8.6698 5.1481 7.55728 4.15328 7.55728 2.9261C7.55728 1.69892 8.6698 0.704102 10.0422 0.704102C11.4145 0.704102 12.527 1.69892 12.527 2.9261Z" stroke="#646262" stroke-miterlimit="10" stroke-linecap="round" stroke-linejoin="round"/>
</svg>
