<svg width="120" height="41" viewBox="0 0 120 41" fill="none" xmlns="http://www.w3.org/2000/svg">
<g filter="url(#filter0_b_419_17614)">
<path d="M0.5 16.9092C0.5 8.07262 7.66344 0.90918 16.5 0.90918H103.5C112.337 0.90918 119.5 8.07262 119.5 16.9092V24.9092C119.5 33.7457 112.337 40.9092 103.5 40.9092H16.5C7.66344 40.9092 0.5 33.7457 0.5 24.9092V16.9092Z" fill="#141617"/>
<path d="M35.5 20.9092C35.5 26.432 31.0228 30.9092 25.5 30.9092C19.9772 30.9092 15.5 26.432 15.5 20.9092C15.5 15.3863 19.9772 10.9092 25.5 10.9092C31.0228 10.9092 35.5 15.3863 35.5 20.9092Z" fill="url(#paint0_linear_419_17614)"/>
<path d="M28.3933 18.9798C28.1877 18.862 27.9233 18.862 27.6883 18.9798L26.0434 19.9519L24.9272 20.5704L23.3117 21.5424C23.1061 21.6603 22.8417 21.6603 22.6067 21.5424L21.3437 20.7766C21.1381 20.6588 20.9912 20.4231 20.9912 20.158V18.6853C20.9912 18.4496 21.1087 18.214 21.3437 18.0667L22.6067 17.3303C22.8123 17.2125 23.0767 17.2125 23.3117 17.3303L24.5747 18.0962C24.7804 18.214 24.9272 18.4496 24.9272 18.7147V19.6868L26.0434 19.0387V18.0373C26.0434 17.8016 25.9259 17.566 25.6909 17.4187L23.3411 16.0343C23.1354 15.9165 22.8711 15.9165 22.6361 16.0343L20.2275 17.4481C19.9925 17.566 19.875 17.8016 19.875 18.0373V20.8061C19.875 21.0417 19.9925 21.2774 20.2275 21.4246L22.6067 22.809C22.8123 22.9269 23.0767 22.9269 23.3117 22.809L24.9272 21.8665L26.0434 21.2184L27.6589 20.2759C27.8646 20.158 28.1289 20.158 28.3639 20.2759L29.627 21.0123C29.8326 21.1301 29.9794 21.3657 29.9794 21.6308V23.1036C29.9794 23.3392 29.8619 23.5749 29.627 23.7221L28.3933 24.4585C28.1877 24.5764 27.9233 24.5764 27.6883 24.4585L26.4253 23.7221C26.2196 23.6043 26.0728 23.3687 26.0728 23.1036V22.161L24.9566 22.809V23.7811C24.9566 24.0167 25.0741 24.2523 25.3091 24.3996L27.6883 25.784C27.8939 25.9018 28.1583 25.9018 28.3933 25.784L30.7725 24.3996C30.9781 24.2818 31.125 24.0462 31.125 23.7811V20.9828C31.125 20.7472 31.0075 20.5115 30.7725 20.3642L28.3933 18.9798Z" fill="#8247E5"/>
<path d="M48.6323 19.1012C48.6323 19.6665 48.4989 20.1998 48.2323 20.7012C47.9656 21.2025 47.5389 21.6132 46.9523 21.9332C46.3656 22.2425 45.6136 22.3972 44.6963 22.3972H42.6803V26.9092H40.8563V15.7892H44.6963C45.5496 15.7892 46.2696 15.9385 46.8563 16.2372C47.4536 16.5252 47.8963 16.9198 48.1843 17.4212C48.4829 17.9225 48.6323 18.4825 48.6323 19.1012ZM44.6963 20.9092C45.3896 20.9092 45.9069 20.7545 46.2483 20.4452C46.5896 20.1252 46.7603 19.6772 46.7603 19.1012C46.7603 17.8852 46.0723 17.2772 44.6963 17.2772H42.6803V20.9092H44.6963ZM54.1959 27.0532C53.3639 27.0532 52.6119 26.8665 51.9399 26.4932C51.2679 26.1092 50.7399 25.5758 50.3559 24.8932C49.9719 24.1998 49.7799 23.3998 49.7799 22.4932C49.7799 21.5972 49.9772 20.8025 50.3719 20.1092C50.7665 19.4158 51.3052 18.8825 51.9879 18.5092C52.6705 18.1358 53.4332 17.9492 54.2759 17.9492C55.1185 17.9492 55.8812 18.1358 56.5639 18.5092C57.2465 18.8825 57.7852 19.4158 58.1799 20.1092C58.5745 20.8025 58.7719 21.5972 58.7719 22.4932C58.7719 23.3892 58.5692 24.1838 58.1639 24.8772C57.7585 25.5705 57.2039 26.1092 56.4999 26.4932C55.8065 26.8665 55.0385 27.0532 54.1959 27.0532ZM54.1959 25.4692C54.6652 25.4692 55.1025 25.3572 55.5079 25.1332C55.9239 24.9092 56.2599 24.5732 56.5159 24.1252C56.7719 23.6772 56.8999 23.1332 56.8999 22.4932C56.8999 21.8532 56.7772 21.3145 56.5319 20.8772C56.2865 20.4292 55.9612 20.0932 55.5559 19.8692C55.1505 19.6452 54.7132 19.5332 54.2439 19.5332C53.7745 19.5332 53.3372 19.6452 52.9319 19.8692C52.5372 20.0932 52.2225 20.4292 51.9879 20.8772C51.7532 21.3145 51.6359 21.8532 51.6359 22.4932C51.6359 23.4425 51.8759 24.1785 52.3559 24.7012C52.8465 25.2132 53.4599 25.4692 54.1959 25.4692ZM62.399 15.0692V26.9092H60.575V15.0692H62.399ZM72.7298 18.0932L67.3218 31.0532H65.4338L67.2258 26.7652L63.7538 18.0932H65.7858L68.2658 24.8132L70.8418 18.0932H72.7298ZM77.6583 17.9492C78.3409 17.9492 78.9436 18.0878 79.4663 18.3652C79.9996 18.6318 80.4156 18.9678 80.7143 19.3732V18.0932H82.5543V27.0532C82.5543 27.8638 82.3836 28.5838 82.0423 29.2132C81.7009 29.8532 81.2049 30.3545 80.5543 30.7172C79.9143 31.0798 79.1463 31.2612 78.2503 31.2612C77.0556 31.2612 76.0636 30.9785 75.2743 30.4132C74.4849 29.8585 74.0369 29.1012 73.9303 28.1412H75.7383C75.8769 28.5998 76.1703 28.9678 76.6183 29.2452C77.0769 29.5332 77.6209 29.6772 78.2503 29.6772C78.9863 29.6772 79.5783 29.4532 80.0263 29.0052C80.4849 28.5572 80.7143 27.9065 80.7143 27.0532V25.5812C80.4049 25.9972 79.9836 26.3492 79.4503 26.6372C78.9276 26.9145 78.3303 27.0532 77.6583 27.0532C76.8903 27.0532 76.1863 26.8612 75.5463 26.4772C74.9169 26.0825 74.4156 25.5385 74.0423 24.8452C73.6796 24.1412 73.4983 23.3465 73.4983 22.4612C73.4983 21.5758 73.6796 20.7918 74.0423 20.1092C74.4156 19.4265 74.9169 18.8985 75.5463 18.5252C76.1863 18.1412 76.8903 17.9492 77.6583 17.9492ZM80.7143 22.4932C80.7143 21.8852 80.5863 21.3572 80.3303 20.9092C80.0849 20.4612 79.7596 20.1198 79.3543 19.8852C78.9489 19.6505 78.5116 19.5332 78.0423 19.5332C77.5729 19.5332 77.1356 19.6505 76.7303 19.8852C76.3249 20.1092 75.9943 20.4452 75.7383 20.8932C75.4929 21.3305 75.3703 21.8532 75.3703 22.4612C75.3703 23.0692 75.4929 23.6025 75.7383 24.0612C75.9943 24.5198 76.3249 24.8718 76.7303 25.1172C77.1463 25.3518 77.5836 25.4692 78.0423 25.4692C78.5116 25.4692 78.9489 25.3518 79.3543 25.1172C79.7596 24.8825 80.0849 24.5412 80.3303 24.0932C80.5863 23.6345 80.7143 23.1012 80.7143 22.4932ZM88.774 27.0532C87.942 27.0532 87.19 26.8665 86.518 26.4932C85.846 26.1092 85.318 25.5758 84.934 24.8932C84.55 24.1998 84.358 23.3998 84.358 22.4932C84.358 21.5972 84.5553 20.8025 84.95 20.1092C85.3447 19.4158 85.8833 18.8825 86.566 18.5092C87.2487 18.1358 88.0113 17.9492 88.854 17.9492C89.6967 17.9492 90.4593 18.1358 91.142 18.5092C91.8247 18.8825 92.3633 19.4158 92.758 20.1092C93.1527 20.8025 93.35 21.5972 93.35 22.4932C93.35 23.3892 93.1473 24.1838 92.742 24.8772C92.3367 25.5705 91.782 26.1092 91.078 26.4932C90.3847 26.8665 89.6167 27.0532 88.774 27.0532ZM88.774 25.4692C89.2433 25.4692 89.6807 25.3572 90.086 25.1332C90.502 24.9092 90.838 24.5732 91.094 24.1252C91.35 23.6772 91.478 23.1332 91.478 22.4932C91.478 21.8532 91.3553 21.3145 91.11 20.8772C90.8647 20.4292 90.5393 20.0932 90.134 19.8692C89.7287 19.6452 89.2913 19.5332 88.822 19.5332C88.3527 19.5332 87.9153 19.6452 87.51 19.8692C87.1153 20.0932 86.8007 20.4292 86.566 20.8772C86.3313 21.3145 86.214 21.8532 86.214 22.4932C86.214 23.4425 86.454 24.1785 86.934 24.7012C87.4247 25.2132 88.038 25.4692 88.774 25.4692ZM99.6011 17.9492C100.294 17.9492 100.913 18.0932 101.457 18.3812C102.012 18.6692 102.444 19.0958 102.753 19.6612C103.062 20.2265 103.217 20.9092 103.217 21.7092V26.9092H101.409V21.9812C101.409 21.1918 101.212 20.5892 100.817 20.1732C100.422 19.7465 99.8838 19.5332 99.2011 19.5332C98.5185 19.5332 97.9745 19.7465 97.5691 20.1732C97.1745 20.5892 96.9771 21.1918 96.9771 21.9812V26.9092H95.1531V18.0932H96.9771V19.1012C97.2758 18.7385 97.6545 18.4558 98.1131 18.2532C98.5825 18.0505 99.0785 17.9492 99.6011 17.9492Z" fill="white"/>
</g>
<defs>
<filter id="filter0_b_419_17614" x="-59.5" y="-59.0908" width="239" height="160" filterUnits="userSpaceOnUse" color-interpolation-filters="sRGB">
<feFlood flood-opacity="0" result="BackgroundImageFix"/>
<feGaussianBlur in="BackgroundImage" stdDeviation="30"/>
<feComposite in2="SourceAlpha" operator="in" result="effect1_backgroundBlur_419_17614"/>
<feBlend mode="normal" in="SourceGraphic" in2="effect1_backgroundBlur_419_17614" result="shape"/>
</filter>
<linearGradient id="paint0_linear_419_17614" x1="25.5" y1="10.9092" x2="25.5" y2="30.9092" gradientUnits="userSpaceOnUse">
<stop stop-color="#320087"/>
<stop offset="1" stop-color="#0F0520"/>
</linearGradient>
</defs>
</svg>
