<svg width="88" height="88" viewBox="0 0 88 88" fill="none" xmlns="http://www.w3.org/2000/svg">
<g filter="url(#filter0_b_966_15159)">
<ellipse cx="44.0003" cy="43.9997" rx="43.9997" ry="43.9997" transform="rotate(-180 44.0003 43.9997)" fill="url(#paint0_linear_966_15159)"/>
<ellipse cx="44.0003" cy="43.9997" rx="43.9997" ry="43.9997" transform="rotate(-180 44.0003 43.9997)" fill="black" fill-opacity="0.8"/>
<path d="M1.50053 43.9997C1.50053 20.5278 20.5283 1.5 44.0003 1.5C67.4722 1.50001 86.5 20.5278 86.5 43.9998C86.5 67.4717 67.4722 86.4995 44.0003 86.4995C20.5283 86.4995 1.50053 67.4717 1.50053 43.9997Z" stroke="url(#paint1_linear_966_15159)" stroke-opacity="0.4" stroke-width="3"/>
</g>
<path fill-rule="evenodd" clip-rule="evenodd" d="M48.1998 63.8389C48.1999 63.8389 48.2001 63.8388 48.2002 63.8388V65.7721H63.2502V60.3471H55.8188C60.2905 56.9593 63.1634 51.6928 63.1634 45.7783C63.1634 35.5576 54.584 27.2721 44.0009 27.2721C33.4177 27.2721 24.8384 35.5576 24.8384 45.7783C24.8384 51.6928 27.7113 56.9593 32.183 60.3471H24.75V65.7721H39.8V65.6845H39.7998V58.48C34.3172 56.7534 30.3518 51.739 30.3518 45.8221C30.3518 38.4767 36.4631 32.5221 44.0018 32.5221C51.5405 32.5221 57.6518 38.4767 57.6518 45.8221C57.6518 51.7404 53.6845 56.7558 48.1998 58.4813V63.8389Z" fill="#728C97"/>
<path d="M62.4253 31.3288C58.0394 33.9604 39.3993 31.6943 30.6276 30.2324C27.996 27.6008 39.7648 25.481 45.9782 24.75H55.8464L65.7147 30.2324L62.4253 31.3288Z" fill="#321B06"/>
<path d="M48.7985 9.50737C48.9823 9.15939 49.2761 8.88057 49.6353 8.71323C50.1289 8.48569 50.6283 8.46269 51.0879 8.78751C51.2432 8.89893 51.3671 9.04785 51.4477 9.21998C51.8619 10.1163 52.274 11.0142 52.6524 11.9288C53.2601 13.4062 54.0835 14.7793 54.7563 16.2267C55.7119 18.2854 56.6755 20.3394 57.6471 22.3887C58.2035 23.562 58.7309 24.7617 59.4297 25.8672C59.6211 26.1585 59.8305 26.4378 60.0567 26.7035C60.1522 26.8122 60.2709 26.8987 60.4041 26.9566C61.4241 27.4227 62.5226 27.5118 63.6178 27.5802C64.1765 27.6156 64.7248 27.5405 65.2799 27.5403C66.3429 27.5421 67.406 27.544 68.4634 27.5804C69.1639 27.6054 69.8639 27.686 70.5611 27.7589C70.8304 27.7964 71.0969 27.8523 71.3585 27.9261C71.4677 27.9568 71.5732 27.9995 71.6728 28.0533C72.2412 28.3438 72.355 28.8308 71.9635 29.3253C71.6371 29.7429 71.215 30.0777 70.7318 30.3022C69.702 30.7644 68.6282 31.1245 67.526 31.3774C66.4393 31.6437 65.3605 31.9404 64.2897 32.2677C62.6515 32.7839 60.9723 33.1643 59.2694 33.405C58.1359 33.5509 56.9936 33.6223 55.85 33.6189C54.8219 33.6228 53.7953 33.5452 52.7642 33.508C51.1915 33.4502 49.6234 33.3336 48.0528 33.2056C45.7535 33.0363 43.4438 33.2944 41.2433 33.9666C39.7577 34.4003 38.2662 34.8185 36.7859 35.2899C36.0885 35.5117 35.414 35.8325 34.7487 36.1209C33.8693 36.4988 32.9996 36.9075 32.1121 37.2734C29.951 38.1742 27.7004 38.7445 25.3273 38.7526C24.0815 38.782 22.8351 38.704 21.6023 38.5196C20.8661 38.3924 20.1223 38.3349 19.3996 38.0831C17.085 37.2635 15.5423 35.728 14.9941 33.3267C14.8456 32.7018 14.8402 32.0525 14.9783 31.4262C15.1164 30.7999 15.3945 30.2125 15.7922 29.7071C16.182 29.1938 16.5579 28.653 16.9778 28.1561C17.8162 27.1424 18.8595 26.3133 20.0412 25.7213C21.1408 25.1625 22.3428 24.8269 23.5769 24.7342C24.3659 24.6595 25.1608 24.6636 25.9496 24.7464C26.2183 24.7759 26.4826 24.8457 26.7497 24.8899C26.8738 24.9035 26.9942 24.9168 27.1499 24.9339C27.1832 24.8375 27.2084 24.7386 27.2253 24.6382C27.2859 23.7903 27.3391 22.9416 27.396 22.0933C27.4204 21.8699 27.4316 21.6468 27.441 21.4236C27.4599 20.9752 27.4638 20.5271 27.4917 20.0816C27.555 19.0894 27.5441 18.0891 27.7634 17.1104C27.7942 16.9565 27.8113 16.8002 27.8143 16.6433C27.8468 15.8646 28.1246 15.1574 28.4568 14.4673C28.4895 14.3961 28.5283 14.3278 28.5728 14.2631C29.2086 13.4065 29.9825 12.6593 30.8637 12.0513C32.5708 10.8669 34.4698 9.97863 36.4798 9.42421C37.8854 9.03266 39.3234 8.76385 40.7773 8.62089C42.1201 8.50302 43.4729 8.54826 44.8056 8.75559C45.2648 8.82641 45.7286 8.89031 46.1845 8.92186C46.977 8.97375 47.7575 9.14257 48.5002 9.42271C48.5923 9.45506 48.6803 9.47399 48.7985 9.50737ZM28.1996 25.1956C28.3451 25.2542 28.4876 25.3236 28.6384 25.368C29.7505 25.7051 30.8641 26.0406 31.979 26.3743L32.1428 26.4035C32.0255 26.3132 31.8911 26.2474 31.7476 26.2099C30.9144 25.9571 30.0851 25.7029 29.2491 25.4591C28.9038 25.3582 28.55 25.2841 28.2013 25.1976C28.1331 24.7564 28.1718 24.6772 28.5758 24.4973C28.7516 24.4165 28.9294 24.3508 29.1034 24.2679C31.7962 23.0924 34.6202 22.2336 37.5174 21.709C39.7193 21.2963 41.9454 21.0183 44.1828 20.8766C46.103 20.7408 48.0305 20.7283 49.9532 20.8393C51.4367 20.9074 52.911 21.1109 54.3575 21.4472C55.0205 21.5968 55.668 21.8076 56.2915 22.0767C56.5134 22.1708 56.6943 22.3399 56.8021 22.5535C57.0989 23.1329 57.4134 23.705 57.722 24.2802L59.1088 26.8663C59.1588 26.9589 59.2537 27.0509 59.1402 27.2145C58.8971 27.1396 58.6384 27.0704 58.3874 26.9817C57.0916 26.5349 55.7517 26.2262 54.3905 26.0608C53.0451 25.8797 51.6869 25.7639 50.3313 25.6762C49.2604 25.6086 48.1822 25.6255 47.1067 25.6168C46.4618 25.5958 45.8163 25.6084 45.173 25.6546C43.9788 25.7719 42.7912 25.9491 41.6016 26.0928L35.7779 26.8416C35.7133 26.8493 35.65 26.8628 35.587 26.8725L35.5794 26.9421C36.4488 27.0504 37.3072 27.2328 38.1453 27.4872C37.6181 27.4552 37.0945 27.3903 36.5691 27.3419C36.0437 27.2934 35.5101 27.2682 34.9777 27.2153C34.4453 27.1624 33.9649 26.9928 33.4362 27.0608C33.5447 27.1405 33.6639 27.2048 33.7904 27.2517C34.8003 27.6519 35.8323 27.9948 36.8813 28.2789C38.3197 28.6389 39.7474 29.0459 41.177 29.4346C41.6908 29.5726 42.1993 29.7415 42.7222 29.8304C43.569 29.9753 44.4239 30.0804 45.2781 30.1742C45.8859 30.2409 46.4969 30.2784 47.1069 30.325C47.6053 30.363 48.0994 30.3895 48.5961 30.4255C49.818 30.5189 51.0399 30.5085 52.2626 30.4908C54.1767 30.4675 56.0856 30.2972 57.972 29.9816C58.6165 29.867 59.2505 29.6938 59.8842 29.5224C60.4637 29.3673 61.026 29.164 61.6038 29.0069C62.5925 28.7448 63.6043 28.8559 64.6134 28.9222C64.8724 28.9377 65.1294 28.9881 65.3878 29.0258C65.7237 29.0757 66.0559 29.1418 66.3935 29.1752C67.0903 29.2517 67.7905 29.3138 68.4912 29.3536C69.1454 29.3903 69.7981 29.4063 70.459 29.3992C70.7409 29.3807 71.0197 29.3318 71.2907 29.2533C71.4103 29.2201 71.521 29.1614 71.6151 29.0813C71.8908 28.8576 71.8743 28.5963 71.5552 28.4445C71.3007 28.3221 71.0291 28.2386 70.7496 28.1966C69.7526 28.0463 68.7456 27.9729 67.7375 27.977C67.285 27.9829 66.8318 27.9944 66.3798 27.9948C66.0855 27.9939 65.7909 27.9783 65.4955 27.9699C66.07 28.1183 66.6492 28.2245 67.2258 28.3361C67.7584 28.439 68.2904 28.5475 68.8222 28.6578C68.9324 28.6888 69.0404 28.7273 69.1453 28.773L69.1268 28.8395C69.0514 28.8424 68.9755 28.8507 68.901 28.8463C68.6865 28.8357 68.4704 28.8231 68.2569 28.8033C67.5569 28.7394 66.8571 28.6904 66.162 28.5992C65.4668 28.508 64.7318 28.3699 64.0162 28.2598C63.356 28.1576 62.691 28.0827 62.0343 27.9661C61.2256 27.8134 60.4342 27.5806 59.6723 27.2711C59.5011 27.2104 59.3591 27.0882 59.2745 26.929C58.6044 25.6802 57.9144 24.4422 57.2564 23.1854C56.5159 21.7732 55.7956 20.3484 55.0753 18.9236C54.5324 17.85 53.9855 16.7779 53.474 15.6911C52.7462 14.1282 52.037 12.5675 51.3331 10.9924C51.1013 10.4702 50.8166 9.96812 50.7569 9.39807C50.3005 9.21633 49.6161 9.3877 49.3367 9.74813C49.6873 9.972 50.1761 9.9089 50.5374 10.2933C50.4335 10.3459 50.322 10.3824 50.2068 10.4016C50.0148 10.3976 49.8238 10.3722 49.6374 10.3261C49.1993 10.2168 48.7735 10.0459 48.3289 9.96183C47.5745 9.81225 46.8124 9.69889 46.0533 9.57475C45.2697 9.45307 44.4765 9.40381 43.6841 9.42762C42.8141 9.4433 41.9389 9.42132 41.0705 9.45755C38.2177 9.60024 35.5633 10.4506 33.0268 11.6994C32.2008 12.1193 31.4123 12.6075 30.6698 13.1588C30.2204 13.466 29.8591 13.8828 29.6208 14.369C28.9487 15.8021 28.6919 17.331 28.5968 18.8906C28.5478 19.7175 28.4985 20.548 28.4409 21.3684C28.3833 22.1888 28.3174 22.999 28.2511 23.8129C28.2147 24.1462 28.1781 24.4814 28.1547 24.8162C28.1042 24.9534 28.0817 25.09 28.1996 25.1956ZM71.2327 29.5268C70.9132 29.6363 70.6008 29.767 70.2752 29.8462C69.8625 29.962 69.4397 30.0396 69.0123 30.0782C68.1838 30.1262 67.3658 29.9752 66.5465 29.8704C65.7272 29.7656 64.9536 29.6547 64.1577 29.5413C63.7636 29.4939 63.3646 29.5083 62.9754 29.5839C62.0547 29.7385 61.1991 30.1043 60.3085 30.3605C59.778 30.5136 59.2533 30.6988 58.7147 30.8231C57.9893 30.9918 57.2485 31.0958 56.5213 31.2644C55.6108 31.4452 54.6832 31.5297 53.754 31.5165C52.37 31.5351 50.9955 31.4138 49.6163 31.3364C48.8484 31.2929 48.0797 31.2919 47.3097 31.2685C46.449 31.2333 45.5882 31.2166 44.7335 31.1264C43.9812 31.0438 43.2367 30.8898 42.4907 30.7485C41.6451 30.59 40.813 30.3666 40.0021 30.0804C38.6136 29.5887 37.2267 29.1009 35.8266 28.6468C34.0397 28.0663 32.2461 27.5072 30.4458 26.9697C29.0586 26.5522 27.6658 26.1527 26.2615 25.7891C25.7351 25.6534 25.1928 25.5883 24.6493 25.5953C23.3646 25.6243 22.1016 25.9228 20.9439 26.4711C20.2579 26.7901 19.5924 27.1503 18.951 27.5498C18.4513 27.8569 17.9821 28.21 17.5496 28.6044C16.5629 29.524 15.8821 30.7185 15.5968 32.0305C15.3666 32.9552 15.5079 33.9334 15.9911 34.7597C16.3981 35.4353 16.9183 36.0378 17.5294 36.5413C17.5698 36.573 17.6124 36.6019 17.6569 36.6275C17.5462 36.419 17.4129 36.2229 17.2594 36.0426C16.795 35.4886 16.4285 34.8611 16.1755 34.1867C15.8436 33.2068 15.8542 32.2497 16.382 31.3308C16.7482 30.725 17.2488 30.2096 17.846 29.8233C18.9258 29.0873 20.1449 28.6726 21.4067 28.3829C23.0925 27.9875 24.8172 27.7736 26.5507 27.7449C27.2848 27.7365 28.0199 27.7542 28.7557 27.7646C29.1863 27.7711 29.6185 27.763 30.0451 27.8061C30.7782 27.8572 31.5072 27.9552 32.2277 28.0996C33.0175 28.2864 33.7816 28.5872 34.552 28.8479C36.14 29.3838 37.7287 29.9141 39.3089 30.4695C40.5984 30.9303 41.9256 31.2795 43.2756 31.5131C44.9552 31.7693 46.6504 31.9103 48.3489 31.935C49.4236 31.9678 50.4986 32.0154 51.5722 32.0406C52.3408 32.0601 53.1144 32.1025 53.8797 32.0494C55.7105 31.9242 57.5286 31.7086 59.2946 31.1797C59.9771 30.9747 60.6647 30.7907 61.3453 30.5856C61.6905 30.4808 62.0241 30.3283 62.3718 30.2349C63.5084 29.9241 64.661 30.0507 65.8102 30.1732C66.192 30.2152 66.5687 30.3029 66.9508 30.3411C67.3329 30.3794 67.7197 30.3755 68.1018 30.4138C68.5639 30.457 69.0291 30.4509 69.4896 30.3957C70.178 30.3248 70.7169 29.9744 71.228 29.5523L71.2327 29.5268Z" fill="#FF890E"/>
<path d="M35.9863 13.1883C35.9067 13.1277 35.7735 13.076 35.7486 12.9954C35.7236 12.9148 35.7969 12.7931 35.8584 12.7109C35.9213 12.6465 35.9964 12.5949 36.0793 12.5591C36.8674 12.0953 37.7182 11.7444 38.6064 11.5168C39.1416 11.3902 39.6878 11.2648 40.2279 11.1611C40.339 11.1421 40.4524 11.1408 40.564 11.1572C40.59 11.1641 40.614 11.1771 40.6339 11.1951C40.6538 11.2131 40.6691 11.2355 40.6784 11.2606C40.678 11.2919 40.6705 11.3226 40.6564 11.3506C40.6423 11.3786 40.622 11.403 40.597 11.4222C40.4719 11.4771 40.3416 11.5199 40.208 11.55C39.6516 11.7002 39.0946 11.8491 38.5372 11.9967C38.1626 12.0953 37.8216 12.2907 37.5491 12.5629C37.2984 12.806 36.983 12.9738 36.6393 13.0469C36.4366 13.1006 36.228 13.1389 35.9863 13.1883Z" fill="#FF890E"/>
<path d="M53.2221 16.6796C52.9858 16.6748 52.7594 16.5839 52.5861 16.4244C52.3487 16.2523 52.1256 16.0616 51.9188 15.8544C51.2024 15.1221 50.5786 14.3067 50.061 13.426C49.9994 13.3323 49.9517 13.2303 49.9197 13.1231C49.9114 13.087 49.9115 13.0496 49.92 13.0136C49.9285 12.9776 49.9451 12.944 49.9686 12.9153C49.9995 12.8941 50.0352 12.8805 50.0726 12.8759C50.11 12.8713 50.148 12.8758 50.1834 12.8889C50.2741 12.9322 50.3532 12.9962 50.4143 13.0755C50.6346 13.3592 50.8361 13.6612 51.0704 13.9372C51.5811 14.5494 52.1079 15.1522 52.6226 15.763C52.8018 15.9773 52.9705 16.2016 53.1369 16.4293C53.1742 16.5095 53.2028 16.5934 53.2221 16.6796V16.6796Z" fill="#FF890E"/>
<path d="M25.2931 25.8998C25.4007 25.9023 25.508 25.9141 25.6136 25.935C26.9479 26.3101 28.2819 26.6877 29.6156 27.0678C29.6777 27.0852 29.7342 27.1182 29.7796 27.1636C28.2064 27.0242 26.7415 26.4945 25.2573 26.0386L25.2931 25.8998Z" fill="#FF890E"/>
<defs>
<filter id="filter0_b_966_15159" x="-164.999" y="-165" width="417.999" height="417.999" filterUnits="userSpaceOnUse" color-interpolation-filters="sRGB">
<feFlood flood-opacity="0" result="BackgroundImageFix"/>
<feGaussianBlur in="BackgroundImage" stdDeviation="82.5"/>
<feComposite in2="SourceAlpha" operator="in" result="effect1_backgroundBlur_966_15159"/>
<feBlend mode="normal" in="SourceGraphic" in2="effect1_backgroundBlur_966_15159" result="shape"/>
</filter>
<linearGradient id="paint0_linear_966_15159" x1="22.5318" y1="53.4283" x2="65.0436" y2="53.4283" gradientUnits="userSpaceOnUse">
<stop stop-color="#FF890E"/>
<stop offset="1" stop-color="#A169FF"/>
</linearGradient>
<linearGradient id="paint1_linear_966_15159" x1="78.2223" y1="19.7999" x2="23.0635" y2="19.081" gradientUnits="userSpaceOnUse">
<stop stop-color="#FF8320"/>
<stop offset="1" stop-color="#A169FF"/>
</linearGradient>
</defs>
</svg>
