<svg width="54" height="29" viewBox="0 0 54 29" fill="none" xmlns="http://www.w3.org/2000/svg">
<path d="M32.1669 1.21638C32.3381 0.893325 32.6117 0.634473 32.9463 0.479117C33.4061 0.267874 33.8713 0.24652 34.2994 0.548073C34.4441 0.65152 34.5595 0.789774 34.6345 0.949579C35.0203 1.78169 35.4042 2.61531 35.7567 3.46443C36.3227 4.83597 37.0898 6.11078 37.7165 7.45455C38.6066 9.36578 39.5042 11.2727 40.4092 13.1752C40.9276 14.2645 41.4188 15.3783 42.0698 16.4046C42.248 16.675 42.443 16.9343 42.6538 17.181C42.7427 17.282 42.8533 17.3622 42.9774 17.4161C43.9275 17.8487 44.9507 17.9315 45.9709 17.995C46.4913 18.0278 47.002 17.9581 47.5191 17.9579C48.5093 17.9596 49.4996 17.9613 50.4845 17.9951C51.137 18.0184 51.7891 18.0932 52.4385 18.1608C52.6894 18.1957 52.9376 18.2476 53.1813 18.3161C53.2831 18.3446 53.3813 18.3842 53.4741 18.4342C54.0036 18.7038 54.1095 19.156 53.7449 19.6151C53.4408 20.0028 53.0476 20.3136 52.5975 20.5221C51.6383 20.9511 50.638 21.2855 49.6113 21.5203C48.5991 21.7674 47.5943 22.0429 46.5968 22.3467C45.0708 22.826 43.5066 23.1792 41.9204 23.4026C40.8645 23.5381 39.8005 23.6044 38.7352 23.6012C37.7776 23.6048 36.8213 23.5328 35.8608 23.4982C34.3959 23.4446 32.9353 23.3363 31.4722 23.2175C29.3304 23.0603 27.179 23.2999 25.1292 23.924C23.7454 24.3266 22.3561 24.7149 20.9772 25.1525C20.3276 25.3585 19.6993 25.6563 19.0796 25.924C18.2604 26.2749 17.4503 26.6543 16.6236 26.994C14.6106 27.8303 12.5141 28.3597 10.3036 28.3673C9.14318 28.3946 7.98217 28.3222 6.83379 28.151C6.148 28.0329 5.45515 27.9794 4.78202 27.7457C2.62594 26.9849 1.18893 25.5593 0.678341 23.3299C0.539999 22.7498 0.534946 22.147 0.66357 21.5655C0.792194 20.9841 1.05124 20.4388 1.42172 19.9695C1.78481 19.493 2.13495 18.991 2.52607 18.5296C3.3071 17.5886 4.27893 16.8188 5.37968 16.2692C6.40388 15.7504 7.5236 15.4389 8.67309 15.3528C9.40809 15.2834 10.1485 15.2872 10.8832 15.3641C11.1335 15.3915 11.3797 15.4563 11.6285 15.4973C11.7442 15.51 11.8564 15.5223 12.0013 15.5381C12.0323 15.4487 12.0558 15.3569 12.0716 15.2636C12.1281 14.4765 12.1776 13.6886 12.2306 12.901C12.2533 12.6936 12.2638 12.4865 12.2725 12.2792C12.2901 11.863 12.2937 11.4469 12.3198 11.0333C12.3787 10.1122 12.3685 9.18356 12.5728 8.27492C12.6015 8.13207 12.6174 7.98696 12.6203 7.84129C12.6505 7.11838 12.9092 6.4618 13.2187 5.82108C13.2492 5.75499 13.2853 5.69158 13.3268 5.63157C13.919 4.8363 14.6399 4.14261 15.4607 3.57811C17.0508 2.4786 18.8198 1.65389 20.692 1.13918C22.0014 0.77567 23.3409 0.526116 24.6952 0.393387C25.9459 0.283961 27.2061 0.325958 28.4475 0.518443C28.8753 0.584193 29.3072 0.643518 29.732 0.672802C30.4701 0.720978 31.1972 0.87771 31.889 1.13778C31.9748 1.16783 32.0567 1.1854 32.1669 1.21638ZM12.9791 15.7811C13.1147 15.8355 13.2474 15.9 13.3878 15.9412C14.4238 16.2542 15.461 16.5656 16.4996 16.8755L16.6522 16.9025C16.5429 16.8187 16.4177 16.7576 16.284 16.7228C15.5079 16.4881 14.7355 16.2521 13.9568 16.0258C13.6351 15.9321 13.3055 15.8633 12.9807 15.783C12.9172 15.3734 12.9532 15.2999 13.3296 15.1329C13.4933 15.0578 13.6589 14.9968 13.821 14.9199C16.3294 13.8286 18.9598 13.0313 21.6586 12.5443C23.7097 12.1611 25.7832 11.903 27.8673 11.7714C29.656 11.6453 31.4515 11.6337 33.2425 11.7368C34.6243 11.8 35.9976 11.9889 37.345 12.3012C37.9625 12.4401 38.5657 12.6358 39.1465 12.8856C39.3532 12.973 39.5218 13.1299 39.6221 13.3283C39.8986 13.8662 40.1916 14.3973 40.479 14.9313L41.7708 17.3322C41.8173 17.4181 41.9058 17.5035 41.8001 17.6555C41.5736 17.5859 41.3326 17.5217 41.0988 17.4393C39.8918 17.0245 38.6437 16.7379 37.3757 16.5844C36.1225 16.4162 34.8574 16.3087 33.5946 16.2273C32.5971 16.1646 31.5927 16.1802 30.591 16.1721C29.9902 16.1526 29.389 16.1644 28.7897 16.2073C27.6773 16.3161 26.5711 16.4807 25.463 16.6141L20.0383 17.3093C19.9781 17.3164 19.9191 17.3289 19.8604 17.338L19.8534 17.4026C20.6632 17.5031 21.4628 17.6724 22.2435 17.9086C21.7524 17.8789 21.2646 17.8186 20.7752 17.7737C20.2858 17.7287 19.7888 17.7053 19.2929 17.6562C18.7969 17.607 18.3495 17.4497 17.857 17.5128C17.958 17.5868 18.0691 17.6464 18.1869 17.69C19.1276 18.0615 20.0889 18.3799 21.0661 18.6436C22.4059 18.9778 23.7358 19.3557 25.0675 19.7166C25.5461 19.8447 26.0197 20.0015 26.5068 20.0841C27.2956 20.2186 28.0919 20.3161 28.8876 20.4032C29.4538 20.4651 30.0229 20.4999 30.5911 20.5432C31.0554 20.5785 31.5156 20.6031 31.9783 20.6365C33.1165 20.7232 34.2547 20.7136 35.3936 20.6971C37.1766 20.6755 38.9547 20.5174 40.7119 20.2244C41.3122 20.118 41.9027 19.9572 42.4931 19.7981C43.0329 19.6541 43.5566 19.4654 44.0949 19.3195C45.0159 19.0761 45.9583 19.1793 46.8983 19.2409C47.1395 19.2552 47.379 19.3021 47.6197 19.337C47.9325 19.3833 48.242 19.4447 48.5565 19.4757C49.2055 19.5468 49.8577 19.6044 50.5105 19.6414C51.1198 19.6754 51.7278 19.6903 52.3434 19.6837C52.606 19.6665 52.8657 19.6211 53.1181 19.5482C53.2295 19.5174 53.3327 19.4629 53.4203 19.3886C53.6771 19.1809 53.6617 18.9383 53.3645 18.7974C53.1275 18.6838 52.8745 18.6062 52.6141 18.5672C51.6854 18.4277 50.7474 18.3595 49.8084 18.3634C49.3868 18.3689 48.9647 18.3795 48.5437 18.3798C48.2695 18.3791 47.9951 18.3645 47.72 18.3568C48.2551 18.4945 48.7946 18.5932 49.3317 18.6967C49.8278 18.7923 50.3234 18.893 50.8187 18.9954C50.9214 19.0242 51.022 19.0599 51.1197 19.1023L51.1024 19.1641C51.0323 19.1668 50.9616 19.1745 50.8922 19.1704C50.6924 19.1605 50.491 19.1488 50.2921 19.1305C49.6401 19.0712 48.9883 19.0256 48.3408 18.941C47.6932 18.8564 47.0086 18.7281 46.342 18.6259C45.7271 18.531 45.1076 18.4615 44.4958 18.3532C43.7425 18.2115 43.0054 17.9953 42.2957 17.708C42.1362 17.6516 42.004 17.5382 41.9252 17.3904C41.301 16.231 40.6582 15.0817 40.0453 13.9149C39.3556 12.6039 38.6846 11.2811 38.0137 9.95825C37.5079 8.96157 36.9985 7.96621 36.522 6.95725C35.8441 5.50635 35.1835 4.05734 34.5278 2.5951C34.3119 2.11027 34.0467 1.64414 33.9911 1.11491C33.5659 0.946184 32.9284 1.10528 32.6682 1.4399C32.9948 1.64774 33.4501 1.58916 33.7866 1.94608C33.6898 1.99485 33.5859 2.02875 33.4786 2.0466C33.2998 2.04282 33.1219 2.01931 32.9483 1.9765C32.5402 1.87504 32.1436 1.71633 31.7294 1.6383C31.0267 1.49943 30.3168 1.39419 29.6097 1.27894C28.8797 1.16597 28.1409 1.12025 27.4028 1.14235C26.5924 1.1569 25.7772 1.1365 24.9682 1.17014C22.3109 1.3026 19.8384 2.09203 17.4756 3.25141C16.7062 3.64129 15.9718 4.09455 15.2801 4.60635C14.8615 4.89149 14.5249 5.27844 14.3029 5.72982C13.6769 7.06037 13.4377 8.47973 13.3491 9.92761C13.3035 10.6953 13.2575 11.4664 13.2039 12.228C13.1502 12.9896 13.0888 13.7418 13.0271 14.4974C12.9932 14.8069 12.9591 15.1181 12.9373 15.4289C12.8902 15.5563 12.8693 15.6831 12.9791 15.7811ZM53.0641 19.8022C52.7665 19.9038 52.4755 20.0251 52.1722 20.0986C51.7878 20.2062 51.394 20.2783 50.9958 20.314C50.2241 20.3586 49.4621 20.2185 48.6989 20.1211C47.9358 20.0238 47.2151 19.9209 46.4738 19.8156C46.1067 19.7717 45.735 19.785 45.3725 19.8551C44.5148 19.9987 43.7179 20.3383 42.8883 20.5762C42.3941 20.7183 41.9054 20.8902 41.4037 21.0056C40.728 21.1623 40.0379 21.2588 39.3605 21.4153C38.5125 21.5832 37.6484 21.6617 36.7829 21.6494C35.4936 21.6666 34.2133 21.554 32.9286 21.4822C32.2133 21.4418 31.4973 21.4408 30.78 21.4191C29.9783 21.3864 29.1765 21.371 28.3804 21.2873C27.6796 21.2105 26.9861 21.0675 26.2912 20.9364C25.5035 20.7893 24.7284 20.5819 23.973 20.3161C22.6797 19.8596 21.3878 19.4067 20.0837 18.9852C18.4192 18.4462 16.7484 17.9272 15.0714 17.4281C13.7793 17.0406 12.4819 16.6697 11.1738 16.3321C10.6834 16.2062 10.1783 16.1457 9.67207 16.1522C8.47533 16.1791 7.29886 16.4563 6.22054 16.9653C5.58151 17.2615 4.96156 17.5959 4.36416 17.9667C3.89865 18.2519 3.46157 18.5797 3.0587 18.9458C2.13964 19.7996 1.50547 20.9085 1.23976 22.1265C1.02531 22.9851 1.15694 23.8932 1.60699 24.6603C1.98609 25.2875 2.47068 25.8469 3.03996 26.3143C3.07754 26.3438 3.11722 26.3706 3.1587 26.3944C3.05556 26.2008 2.93142 26.0187 2.78844 25.8514C2.35586 25.337 2.01448 24.7544 1.77875 24.1284C1.46959 23.2186 1.47951 22.33 1.97115 21.4769C2.31226 20.9145 2.77851 20.436 3.33486 20.0774C4.34067 19.3942 5.47628 19.0091 6.6516 18.7402C8.22191 18.3731 9.82845 18.1745 11.4432 18.1479C12.127 18.1401 12.8117 18.1565 13.4972 18.1662C13.8983 18.1722 14.3008 18.1647 14.6982 18.2047C15.381 18.2521 16.0602 18.3431 16.7313 18.4772C17.4669 18.6506 18.1787 18.9299 18.8964 19.1719C20.3756 19.6694 21.8554 20.1617 23.3274 20.6774C24.5285 21.1052 25.7648 21.4294 27.0223 21.6463C28.5868 21.8841 30.1659 22.0149 31.7481 22.0379C32.7491 22.0683 33.7504 22.1125 34.7505 22.1359C35.4665 22.1541 36.1871 22.1934 36.8999 22.1441C38.6053 22.0279 40.2988 21.8277 41.9439 21.3367C42.5796 21.1464 43.2201 20.9756 43.8541 20.7851C44.1757 20.6878 44.4864 20.5463 44.8103 20.4596C45.869 20.171 46.9426 20.2886 48.0131 20.4023C48.3687 20.4412 48.7196 20.5227 49.0756 20.5582C49.4315 20.5937 49.7918 20.5901 50.1477 20.6256C50.5781 20.6658 51.0115 20.6601 51.4404 20.6088C52.0817 20.543 52.5837 20.2177 53.0598 19.8258L53.0641 19.8022Z" fill="#847C7C"/>
</svg>
