<svg width="141" height="92" viewBox="0 0 141 92" fill="none" xmlns="http://www.w3.org/2000/svg">
<path d="M81.0989 10.6301C81.5305 9.81566 82.2204 9.16306 83.0639 8.77138C84.2232 8.2388 85.396 8.18497 86.4755 8.94523C86.8402 9.20604 87.1311 9.5546 87.3203 9.95749C88.2929 12.0554 89.2608 14.157 90.1494 16.2978C91.5765 19.7557 93.5103 22.9697 95.0904 26.3575C97.3345 31.176 99.5974 35.9836 101.879 40.7802C103.186 43.5264 104.424 46.3345 106.066 48.9221C106.515 49.6038 107.007 50.2575 107.538 50.8794C107.762 51.1339 108.041 51.3363 108.354 51.472C110.749 52.5628 113.329 52.7715 115.901 52.9315C117.213 53.0144 118.501 52.8386 119.804 52.8381C122.301 52.8424 124.797 52.8467 127.281 52.9319C128.926 52.9905 130.57 53.1791 132.207 53.3496C132.839 53.4376 133.465 53.5684 134.08 53.7412C134.336 53.813 134.584 53.9129 134.818 54.0389C136.153 54.7187 136.42 55.8586 135.5 57.0162C134.734 57.9935 133.742 58.777 132.608 59.3027C130.189 60.3844 127.667 61.2273 125.079 61.8193C122.527 62.4424 119.994 63.137 117.479 63.903C113.632 65.1112 109.688 66.0016 105.689 66.5649C103.027 66.9065 100.344 67.0737 97.6588 67.0656C95.2445 67.0747 92.8334 66.8932 90.412 66.8061C86.7187 66.6708 83.0361 66.3979 79.3476 66.0983C73.9478 65.702 68.5236 66.3061 63.356 67.8795C59.8671 68.8946 56.3646 69.8736 52.888 70.9768C51.2502 71.4961 49.6663 72.2468 48.1039 72.9218C46.0386 73.8064 43.9962 74.763 41.9119 75.6195C36.8368 77.7279 31.5514 79.0627 25.9784 79.0818C23.0527 79.1505 20.1256 78.968 17.2304 78.5364C15.5014 78.2387 13.7546 78.1039 12.0576 77.5146C6.62176 75.5964 2.99882 72.0023 1.71156 66.3817C1.36278 64.9192 1.35004 63.3993 1.67432 61.9334C1.9986 60.4675 2.6517 59.0927 3.58574 57.9097C4.50113 56.7083 5.38389 55.4426 6.36997 54.2793C8.33907 51.9069 10.7892 49.9661 13.5643 48.5806C16.1465 47.2726 18.9695 46.4871 21.8675 46.2702C23.7206 46.0953 25.5874 46.1049 27.4397 46.2988C28.0707 46.3678 28.6914 46.5312 29.3186 46.6346C29.6102 46.6665 29.893 46.6975 30.2586 46.7375C30.3367 46.512 30.396 46.2805 30.4357 46.0453C30.578 44.0608 30.7029 42.0744 30.8366 40.0889C30.8938 39.5659 30.9202 39.0438 30.9421 38.5212C30.9865 37.4718 30.9956 36.4229 31.0613 35.3801C31.2098 33.0579 31.1843 30.7166 31.6993 28.4258C31.7717 28.0656 31.8117 27.6998 31.8189 27.3325C31.8951 25.51 32.5475 23.8546 33.3276 22.2393C33.4045 22.0726 33.4957 21.9128 33.6001 21.7615C35.0932 19.7565 36.9107 18.0076 38.9803 16.5844C42.9891 13.8124 47.4488 11.7332 52.1691 10.4355C55.4701 9.51904 58.8472 8.88987 62.2616 8.55524C65.415 8.27936 68.5921 8.38524 71.7218 8.87053C72.8003 9.03629 73.8893 9.18586 74.9602 9.25969C76.8212 9.38115 78.6542 9.77629 80.3983 10.432C80.6147 10.5077 80.8212 10.552 81.0989 10.6301ZM32.7238 47.35C33.0654 47.4872 33.4 47.6497 33.7542 47.7535C36.3659 48.5427 38.981 49.3279 41.5995 50.1091L41.984 50.1772C41.7086 49.966 41.3929 49.8119 41.0559 49.7242C39.0992 49.1325 37.1518 48.5376 35.1885 47.9669C34.3776 47.7306 33.5466 47.5573 32.7276 47.3548C32.5676 46.3221 32.6584 46.1368 33.6073 45.7157C34.02 45.5266 34.4375 45.3727 34.8463 45.1788C41.1702 42.4274 47.802 40.4172 54.6059 39.1894C59.777 38.2235 65.0047 37.5728 70.2592 37.241C74.7687 36.9231 79.2954 36.8939 83.8106 37.1538C87.2944 37.3131 90.7568 37.7894 94.1537 38.5766C95.7107 38.9268 97.2313 39.4201 98.6957 40.0499C99.2167 40.2703 99.6417 40.6659 99.8947 41.166C100.592 42.5222 101.33 43.8613 102.055 45.2074L105.312 51.2605C105.429 51.4772 105.652 51.6926 105.386 52.0755C104.815 51.9002 104.207 51.7383 103.618 51.5306C100.575 50.4848 97.428 49.7622 94.2312 49.3751C91.0716 48.9512 87.882 48.6802 84.6985 48.4749C82.1836 48.3168 79.6514 48.3563 77.1258 48.3358C75.6113 48.2867 74.0954 48.3163 72.5845 48.4245C69.7801 48.6989 66.991 49.1138 64.1974 49.4501L50.5209 51.2027C50.3692 51.2208 50.2204 51.2523 50.0726 51.2751L50.0547 51.438C52.0963 51.6915 54.1124 52.1183 56.0805 52.7137C54.8424 52.6389 53.6127 52.487 52.3789 52.3736C51.145 52.2602 49.892 52.2012 48.6416 52.0773C47.3912 51.9535 46.2632 51.5567 45.0215 51.7158C45.2763 51.9024 45.5563 52.0528 45.8534 52.1626C48.225 53.0993 50.6486 53.902 53.1121 54.5668C56.4901 55.4094 59.8429 56.3621 63.2003 57.2719C64.4069 57.5949 65.6011 57.9903 66.829 58.1984C68.8176 58.5376 70.8254 58.7834 72.8315 59.003C74.2589 59.1592 75.6937 59.2468 77.1263 59.3559C78.2968 59.445 79.457 59.5069 80.6236 59.5912C83.493 59.8098 86.3626 59.7855 89.2341 59.7441C93.7291 59.6894 98.212 59.2909 102.642 58.5521C104.156 58.2839 105.645 57.8786 107.133 57.4774C108.494 57.1145 109.814 56.6386 111.171 56.2708C113.493 55.6572 115.869 55.9173 118.239 56.0726C118.847 56.1088 119.451 56.2269 120.058 56.315C120.847 56.4318 121.627 56.5866 122.42 56.6647C124.056 56.8438 125.7 56.9891 127.346 57.0824C128.882 57.1681 130.415 57.2058 131.967 57.1891C132.629 57.1458 133.284 57.0313 133.92 56.8475C134.201 56.7699 134.461 56.6325 134.682 56.445C135.329 55.9215 135.291 55.3098 134.541 54.9545C133.944 54.6681 133.306 54.4724 132.65 54.3743C130.308 54.0224 127.943 53.8506 125.576 53.8603C124.513 53.8742 123.449 53.9008 122.387 53.9018C121.696 53.8999 121.004 53.8632 120.311 53.8437C121.66 54.1909 123.02 54.4396 124.374 54.7006C125.625 54.9417 126.874 55.1956 128.123 55.4537C128.382 55.5263 128.635 55.6164 128.882 55.7234L128.838 55.8791C128.661 55.8858 128.483 55.9053 128.308 55.8948C127.804 55.8701 127.297 55.8406 126.795 55.7943C125.152 55.6448 123.508 55.53 121.876 55.3166C120.243 55.1032 118.517 54.7798 116.837 54.5221C115.286 54.2829 113.724 54.1076 112.182 53.8347C110.283 53.4774 108.425 52.9323 106.635 52.208C106.233 52.0658 105.9 51.78 105.701 51.4072C104.127 48.4843 102.507 45.5866 100.962 42.6451C99.2227 39.3397 97.5311 36.0047 95.8396 32.6697C94.5644 30.1569 93.2801 27.6475 92.0789 25.1037C90.3698 21.4458 88.7043 17.7926 87.0512 14.1061C86.5068 12.8838 85.8383 11.7086 85.6981 10.3743C84.6261 9.94893 83.0188 10.35 82.3628 11.1937C83.1862 11.7177 84.3341 11.57 85.1825 12.4698C84.9384 12.5928 84.6766 12.6782 84.4061 12.7232C83.9552 12.7137 83.5068 12.6544 83.069 12.5465C82.0401 12.2907 81.0402 11.8906 79.996 11.6939C78.2243 11.3438 76.4345 11.0784 74.6519 10.7878C72.8116 10.503 70.9489 10.3878 69.0879 10.4435C67.0449 10.4802 64.9895 10.4287 62.9501 10.5135C56.2505 10.8475 50.0169 12.8378 44.06 15.7607C42.1202 16.7437 40.2686 17.8864 38.5247 19.1768C37.4694 19.8957 36.6209 20.8712 36.0612 22.0092C34.483 25.3637 33.8799 28.9421 33.6565 32.5925C33.5415 34.5279 33.4256 36.4719 33.2903 38.3921C33.155 40.3123 33.0003 42.2087 32.8446 44.1137C32.7592 44.894 32.6733 45.6785 32.6184 46.4621C32.4996 46.7832 32.4469 47.1028 32.7238 47.35ZM133.784 57.4877C133.034 57.744 132.3 58.0499 131.536 58.2352C130.566 58.5062 129.573 58.688 128.57 58.7782C126.624 58.8907 124.703 58.5372 122.779 58.2919C120.855 58.0466 119.038 57.787 117.169 57.5217C116.243 57.4108 115.306 57.4444 114.392 57.6213C112.23 57.9833 110.221 58.8393 108.129 59.4391C106.883 59.7973 105.651 60.2308 104.386 60.5219C102.683 60.9168 100.943 61.1602 99.2353 61.5546C97.0971 61.9779 94.9187 62.1758 92.7366 62.1449C89.4862 62.1883 86.2584 61.9044 83.0193 61.7234C81.2161 61.6214 79.4108 61.6191 77.6024 61.5643C75.5812 61.4819 73.5597 61.4429 71.5526 61.2318C69.7858 61.0385 68.0373 60.6779 66.2855 60.3473C64.2996 59.9763 62.3454 59.4535 60.441 58.7834C57.1804 57.6326 53.9232 56.4908 50.6353 55.428C46.4389 54.0692 42.2267 52.7606 37.9987 51.5024C34.7411 50.5254 31.47 49.5904 28.1722 48.7391C26.9359 48.4217 25.6625 48.2692 24.3861 48.2857C21.369 48.3535 18.4029 49.0522 15.6843 50.3355C14.0732 51.0822 12.5102 51.9253 11.0041 52.8602C9.83045 53.5792 8.72851 54.4057 7.71281 55.3287C5.39573 57.4811 3.79689 60.2769 3.12699 63.3478C2.58634 65.5123 2.91819 67.8018 4.05283 69.7357C5.0086 71.3172 6.23033 72.7274 7.66557 73.9058C7.7603 73.9801 7.86035 74.0476 7.96493 74.1077C7.7049 73.6196 7.39191 73.1605 7.03145 72.7387C5.94085 71.4418 5.08018 69.9731 4.48587 68.3948C3.70642 66.1011 3.73143 63.8608 4.97093 61.7101C5.83091 60.2922 7.0064 59.0858 8.40905 58.1816C10.9449 56.4591 13.8079 55.4883 16.771 54.8104C20.73 53.8848 24.7804 53.384 28.8514 53.3169C30.5755 53.2974 32.3017 53.3388 34.0297 53.3631C35.041 53.3784 36.056 53.3593 37.0578 53.4603C38.7793 53.5798 40.4915 53.8092 42.1836 54.1471C44.0382 54.5844 45.8327 55.2885 47.642 55.8987C51.3713 57.1529 55.1021 58.3943 58.8132 59.6942C61.8415 60.7728 64.9584 61.5901 68.1286 62.1369C72.0731 62.7365 76.0541 63.0664 80.0431 63.1244C82.5669 63.201 85.0913 63.3125 87.6127 63.3715C89.4177 63.4173 91.2345 63.5163 93.0317 63.392C97.3311 63.099 101.601 62.5945 105.748 61.3564C107.351 60.8767 108.966 60.4461 110.564 59.9659C111.375 59.7206 112.158 59.3638 112.975 59.1451C115.644 58.4177 118.351 58.714 121.05 59.0008C121.946 59.0989 122.831 59.3042 123.728 59.3937C124.626 59.4833 125.534 59.4742 126.431 59.5638C127.516 59.665 128.609 59.6507 129.69 59.5214C131.307 59.3556 132.573 58.5353 133.773 57.5473L133.784 57.4877Z" fill="url(#paint0_linear_135_35695)"/>
<path d="M51.0109 19.2462C50.8239 19.1043 50.5112 18.9833 50.4526 18.7946C50.394 18.606 50.5661 18.3211 50.7105 18.1287C50.8583 17.978 51.0345 17.8573 51.2294 17.7733C53.08 16.6879 55.0781 15.8666 57.1641 15.3338C58.4208 15.0375 59.7036 14.7441 60.9721 14.5011C61.2329 14.4567 61.4993 14.4537 61.7613 14.4921C61.8225 14.5083 61.8788 14.5387 61.9255 14.5808C61.9723 14.623 62.0081 14.6755 62.0299 14.7341C62.029 14.8073 62.0114 14.8793 61.9783 14.9448C61.9452 15.0103 61.8975 15.0676 61.8388 15.1123C61.5449 15.2409 61.239 15.3411 60.9253 15.4115C59.6185 15.763 58.3106 16.1116 57.0015 16.4571C56.1218 16.6879 55.3209 17.1453 54.681 17.7823C54.0922 18.3514 53.3515 18.7441 52.5445 18.9151C52.0683 19.0409 51.5785 19.1305 51.0109 19.2462Z" fill="url(#paint1_linear_135_35695)"/>
<path d="M91.4868 27.4164C90.9319 27.405 90.4001 27.1923 89.9932 26.819C89.4357 26.4161 88.9117 25.9699 88.4262 25.4848C86.7438 23.7709 85.2787 21.8623 84.0632 19.8009C83.9184 19.5816 83.8066 19.3428 83.7312 19.0921C83.7119 19.0076 83.7122 18.92 83.7321 18.8357C83.752 18.7515 83.791 18.6729 83.8461 18.6057C83.9187 18.5559 84.0025 18.5242 84.0904 18.5135C84.1783 18.5027 84.2675 18.5131 84.3505 18.5438C84.5636 18.6453 84.7495 18.795 84.8928 18.9806C85.4103 19.6446 85.8834 20.3515 86.4336 20.9975C87.6331 22.4304 88.8703 23.8413 90.079 25.2709C90.4997 25.7725 90.8959 26.2974 91.2867 26.8305C91.3744 27.0182 91.4415 27.2147 91.4868 27.4164Z" fill="url(#paint2_linear_135_35695)"/>
<path d="M25.8982 48.9977C26.151 49.0037 26.4029 49.0313 26.651 49.0802C29.7844 49.9582 32.9172 50.842 36.0494 51.7315C36.1951 51.7723 36.3278 51.8496 36.4344 51.9559C32.74 51.6296 29.2998 50.3897 25.8142 49.3226L25.8982 48.9977Z" fill="url(#paint3_linear_135_35695)"/>
<defs>
<linearGradient id="paint0_linear_135_35695" x1="4.19773" y1="38.3441" x2="101.171" y2="-13.2873" gradientUnits="userSpaceOnUse">
<stop stop-color="#DE6B38"/>
<stop offset="1" stop-color="#7163BB"/>
</linearGradient>
<linearGradient id="paint1_linear_135_35695" x1="50.7085" y1="16.2468" x2="58.3846" y2="11.7436" gradientUnits="userSpaceOnUse">
<stop stop-color="#DE6B38"/>
<stop offset="1" stop-color="#7163BB"/>
</linearGradient>
<linearGradient id="paint2_linear_135_35695" x1="83.3296" y1="22.4739" x2="90.954" y2="20.1834" gradientUnits="userSpaceOnUse">
<stop stop-color="#DE6B38"/>
<stop offset="1" stop-color="#7163BB"/>
</linearGradient>
<linearGradient id="paint3_linear_135_35695" x1="25.7533" y1="49.8787" x2="27.8145" y2="46.1887" gradientUnits="userSpaceOnUse">
<stop stop-color="#DE6B38"/>
<stop offset="1" stop-color="#7163BB"/>
</linearGradient>
</defs>
</svg>
