<svg width="32" height="32" viewBox="0 0 32 32" fill="none" xmlns="http://www.w3.org/2000/svg">
<g clip-path="url(#clip0_153_8578)">
<path d="M6.66654 3.06668L31.4665 20L25.3332 29.0667L0.533203 12L6.66654 3.06668Z" fill="url(#paint0_linear_153_8578)"/>
<path d="M31.4664 20C29.3331 23.0667 22.1331 21.8667 15.3331 17.0667C8.39978 12.4 4.66645 6.13334 6.66645 3.06667C8.79978 7.7486e-06 15.9998 1.20001 22.7998 6.00001C29.7331 10.5333 33.4664 16.9333 31.4664 20Z" fill="url(#paint1_linear_153_8578)"/>
<path d="M25.3332 28.9333C23.1998 32 15.9998 30.8 9.19985 26C2.39985 21.2 -1.46682 15.0667 0.666515 11.8667C2.79985 8.80001 9.99985 10 16.7998 14.8C23.5998 19.6 27.3332 25.8667 25.3332 28.9333Z" fill="url(#paint2_linear_153_8578)"/>
<path d="M31.4668 20L25.3335 29.0667C23.2001 32.1333 16.0001 30.8 9.20013 26.1333C7.8668 25.2 6.6668 24.2667 5.4668 23.2C6.40013 23.0667 7.60013 22.5333 8.80013 21.2C10.9335 18.9333 12.0001 18.4 12.9335 18.5333C13.8668 18.5333 14.9335 19.4667 16.6668 21.7333C18.4001 24 20.8001 24.6667 22.2668 23.4667C22.4001 23.3333 22.5335 23.3333 22.6668 23.2C23.8668 22.2667 24.2668 21.8667 26.5335 17.6C27.0668 16.5333 28.9335 14.8 31.4668 15.6C32.1335 17.3333 32.1335 18.8 31.4668 20Z" fill="#0E0F23"/>
<path fill-rule="evenodd" clip-rule="evenodd" d="M30.5327 19.4667C28.6661 22.1333 22.1327 20.8 15.8661 16.4C9.46605 12 5.73272 6.40001 7.59939 3.73334C9.46605 1.06667 15.9994 2.40001 22.2661 6.80001C28.5327 11.2 32.2661 16.8 30.5327 19.4667ZM24.6661 15.4667C23.7327 16.8 20.5327 16.1333 17.3327 14C14.2661 11.8667 12.3994 9.06667 13.3327 7.73334C14.2661 6.40001 17.4661 7.06667 20.6661 9.20001C23.7327 11.3333 25.5994 14.1333 24.6661 15.4667Z" fill="white"/>
<path d="M6.13294 6.13334C6.13294 6.00001 5.99961 5.86667 5.86628 6.00001C5.73294 6.13334 5.59961 6.13334 5.59961 6.26667C5.73294 6.66667 5.86628 6.93334 5.86628 7.20001C5.86628 7.33334 5.99961 7.46667 6.13294 7.33334C6.26628 7.33334 6.39961 7.20001 6.26628 7.06667C6.26628 6.80001 6.26628 6.53334 6.13294 6.13334Z" fill="white"/>
<path d="M6.79941 8.26667C6.79941 8.13334 6.66608 8 6.53275 8.13334C6.39941 8.26667 6.39941 8.26667 6.39941 8.40001C7.86608 11.7333 10.9327 15.3333 14.9327 18C15.0661 18.1333 15.1994 18 15.3327 18C15.4661 17.8667 15.3327 17.7333 15.3327 17.6C11.1994 14.9333 8.26608 11.4667 6.79941 8.26667Z" fill="white"/>
<path d="M22.9337 21.3333C22.8003 21.3333 22.667 21.3333 22.667 21.4667C22.667 21.6 22.667 21.7333 22.8003 21.7333C23.2003 21.8667 23.7337 22 24.1337 22.1333C24.267 22.1333 24.4003 22.1333 24.4003 22C24.4003 21.8667 24.4003 21.7333 24.267 21.7333C23.867 21.6 23.3337 21.4667 22.9337 21.3333Z" fill="white"/>
<path d="M25.3331 21.8667C25.1997 21.8667 25.0664 22 25.0664 22.1333C25.0664 22.2667 25.1997 22.4 25.3331 22.4C26.3997 22.5333 27.5997 22.6667 28.5331 22.5333C28.6664 22.5333 28.7997 22.4 28.7997 22.2667C28.7997 22.1333 28.6664 22 28.5331 22C27.4664 22.1333 26.3997 22 25.3331 21.8667Z" fill="white"/>
</g>
<defs>
<linearGradient id="paint0_linear_153_8578" x1="11.5255" y1="0.659081" x2="16.4436" y2="17.5473" gradientUnits="userSpaceOnUse">
<stop stop-color="#03B8FF"/>
<stop offset="1" stop-color="#FA52A0"/>
</linearGradient>
<linearGradient id="paint1_linear_153_8578" x1="15.5755" y1="-0.520526" x2="20.4938" y2="16.3679" gradientUnits="userSpaceOnUse">
<stop stop-color="#03B8FF"/>
<stop offset="1" stop-color="#FA52A0"/>
</linearGradient>
<linearGradient id="paint2_linear_153_8578" x1="7.48785" y1="1.83481" x2="12.4061" y2="18.7232" gradientUnits="userSpaceOnUse">
<stop stop-color="#03B8FF"/>
<stop offset="1" stop-color="#FA52A0"/>
</linearGradient>
<clipPath id="clip0_153_8578">
<rect width="32" height="32" fill="white"/>
</clipPath>
</defs>
</svg>
